<?xml version="1.0" encoding="utf-8" standalone="no"?>
<!DOCTYPE svg PUBLIC "-//W3C//DTD SVG 1.1//EN"
  "http://www.w3.org/Graphics/SVG/1.1/DTD/svg11.dtd">
<svg xmlns:xlink="http://www.w3.org/1999/xlink" width="432pt" height="432pt" viewBox="0 0 432 432" xmlns="http://www.w3.org/2000/svg" version="1.1">
 <metadata>
  <rdf:RDF xmlns:dc="http://purl.org/dc/elements/1.1/" xmlns:cc="http://creativecommons.org/ns#" xmlns:rdf="http://www.w3.org/1999/02/22-rdf-syntax-ns#">
   <cc:Work>
    <dc:type rdf:resource="http://purl.org/dc/dcmitype/StillImage"/>
    <dc:date>2025-07-15T07:53:07.049198</dc:date>
    <dc:format>image/svg+xml</dc:format>
    <dc:creator>
     <cc:Agent>
      <dc:title>Matplotlib v3.10.1, https://matplotlib.org/</dc:title>
     </cc:Agent>
    </dc:creator>
   </cc:Work>
  </rdf:RDF>
 </metadata>
 <defs>
  <style type="text/css">*{stroke-linejoin: round; stroke-linecap: butt}</style>
 </defs>
 <g id="figure_1">
  <g id="patch_1">
   <path d="M 0 432 
L 432 432 
L 432 0 
L 0 0 
z
" style="fill: #ffffff"/>
  </g>
  <g id="axes_1">
   <g id="patch_2">
    <path d="M 54.79 371.76125 
L 421.2 371.76125 
L 421.2 10.8 
L 54.79 10.8 
z
" style="fill: #ffffff"/>
   </g>
   <g id="FillBetweenPolyCollection_1">
    <defs>
     <path id="m3d0eaaf6ff" d="M 71.445 -104.380692 
L 71.445 -103.401978 
L 113.0825 -109.18809 
L 154.72 -110.954937 
L 196.3575 -121.60096 
L 237.995 -128.642179 
L 279.6325 -140.38638 
L 321.27 -160.606626 
L 362.9075 -200.467157 
L 404.545 -318.284574 
L 404.545 -328.730383 
L 404.545 -328.730383 
L 362.9075 -205.661816 
L 321.27 -164.232061 
L 279.6325 -142.276111 
L 237.995 -130.397234 
L 196.3575 -123.489747 
L 154.72 -111.944032 
L 113.0825 -110.174965 
L 71.445 -104.380692 
z
" style="stroke: #120406; stroke-opacity: 0.2; stroke-width: 0.48"/>
    </defs>
    <g clip-path="url(#pc8894c32d6)">
     <use xlink:href="#m3d0eaaf6ff" x="0" y="432" style="fill: #120406; fill-opacity: 0.2; stroke: #120406; stroke-opacity: 0.2; stroke-width: 0.48"/>
    </g>
   </g>
   <g id="FillBetweenPolyCollection_2">
    <defs>
     <path id="me89ff48c18" d="M 71.445 -103.084971 
L 71.445 -102.005082 
L 113.0825 -105.728971 
L 154.72 -110.441525 
L 196.3575 -119.565775 
L 237.995 -125.462286 
L 279.6325 -139.09464 
L 321.27 -154.173365 
L 362.9075 -189.650253 
L 404.545 -302.181637 
L 404.545 -309.986316 
L 404.545 -309.986316 
L 362.9075 -194.655409 
L 321.27 -157.16579 
L 279.6325 -141.613947 
L 237.995 -127.201735 
L 196.3575 -121.279575 
L 154.72 -111.65909 
L 113.0825 -106.864694 
L 71.445 -103.084971 
z
" style="stroke: #ff80df; stroke-opacity: 0.2; stroke-width: 0.48"/>
    </defs>
    <g clip-path="url(#pc8894c32d6)">
     <use xlink:href="#me89ff48c18" x="0" y="432" style="fill: #ff80df; fill-opacity: 0.2; stroke: #ff80df; stroke-opacity: 0.2; stroke-width: 0.48"/>
    </g>
   </g>
   <g id="FillBetweenPolyCollection_3">
    <defs>
     <path id="m4629068e12" d="M 71.445 -100.332854 
L 71.445 -99.377236 
L 113.0825 -104.907846 
L 154.72 -109.947027 
L 196.3575 -116.674089 
L 237.995 -125.957999 
L 279.6325 -135.908559 
L 321.27 -152.872874 
L 362.9075 -184.544226 
L 404.545 -284.202289 
L 404.545 -293.743154 
L 404.545 -293.743154 
L 362.9075 -190.025556 
L 321.27 -155.664396 
L 279.6325 -138.133143 
L 237.995 -127.397209 
L 196.3575 -118.379971 
L 154.72 -111.061736 
L 113.0825 -105.670102 
L 71.445 -100.332854 
z
" style="stroke: #fd75cb; stroke-opacity: 0.2; stroke-width: 0.48"/>
    </defs>
    <g clip-path="url(#pc8894c32d6)">
     <use xlink:href="#m4629068e12" x="0" y="432" style="fill: #fd75cb; fill-opacity: 0.2; stroke: #fd75cb; stroke-opacity: 0.2; stroke-width: 0.48"/>
    </g>
   </g>
   <g id="FillBetweenPolyCollection_4">
    <defs>
     <path id="m7426b8f381" d="M 71.445 -96.761466 
L 71.445 -95.978929 
L 113.0825 -102.105674 
L 154.72 -104.843759 
L 196.3575 -111.94142 
L 237.995 -119.951618 
L 279.6325 -129.092592 
L 321.27 -144.611379 
L 362.9075 -180.454766 
L 404.545 -267.534154 
L 404.545 -274.769456 
L 404.545 -274.769456 
L 362.9075 -184.714316 
L 321.27 -146.452691 
L 279.6325 -130.737972 
L 237.995 -121.009303 
L 196.3575 -113.130859 
L 154.72 -105.676676 
L 113.0825 -102.684999 
L 71.445 -96.761466 
z
" style="stroke: #fa6ab6; stroke-opacity: 0.2; stroke-width: 0.48"/>
    </defs>
    <g clip-path="url(#pc8894c32d6)">
     <use xlink:href="#m7426b8f381" x="0" y="432" style="fill: #fa6ab6; fill-opacity: 0.2; stroke: #fa6ab6; stroke-opacity: 0.2; stroke-width: 0.48"/>
    </g>
   </g>
   <g id="FillBetweenPolyCollection_5">
    <defs>
     <path id="m47a12d393c" d="M 71.445 -95.145058 
L 71.445 -94.50964 
L 113.0825 -98.919994 
L 154.72 -101.490294 
L 196.3575 -108.911557 
L 237.995 -115.304384 
L 279.6325 -124.497438 
L 321.27 -140.555495 
L 362.9075 -173.046466 
L 404.545 -259.050411 
L 404.545 -265.886017 
L 404.545 -265.886017 
L 362.9075 -175.865145 
L 321.27 -142.991692 
L 279.6325 -125.809371 
L 237.995 -116.677456 
L 196.3575 -109.957932 
L 154.72 -102.180957 
L 113.0825 -99.639623 
L 71.445 -95.145058 
z
" style="stroke: #f860a2; stroke-opacity: 0.2; stroke-width: 0.48"/>
    </defs>
    <g clip-path="url(#pc8894c32d6)">
     <use xlink:href="#m47a12d393c" x="0" y="432" style="fill: #f860a2; fill-opacity: 0.2; stroke: #f860a2; stroke-opacity: 0.2; stroke-width: 0.48"/>
    </g>
   </g>
   <g id="FillBetweenPolyCollection_6">
    <defs>
     <path id="m8417fb2998" d="M 71.445 -93.790574 
L 71.445 -93.21912 
L 113.0825 -97.3718 
L 154.72 -100.403175 
L 196.3575 -107.149122 
L 237.995 -111.953423 
L 279.6325 -122.271564 
L 321.27 -137.270303 
L 362.9075 -164.471452 
L 404.545 -236.463781 
L 404.545 -242.444887 
L 404.545 -242.444887 
L 362.9075 -166.456272 
L 321.27 -139.484462 
L 279.6325 -123.546464 
L 237.995 -113.052774 
L 196.3575 -108.136927 
L 154.72 -101.102553 
L 113.0825 -97.844763 
L 71.445 -93.790574 
z
" style="stroke: #f6548d; stroke-opacity: 0.2; stroke-width: 0.48"/>
    </defs>
    <g clip-path="url(#pc8894c32d6)">
     <use xlink:href="#m8417fb2998" x="0" y="432" style="fill: #f6548d; fill-opacity: 0.2; stroke: #f6548d; stroke-opacity: 0.2; stroke-width: 0.48"/>
    </g>
   </g>
   <g id="FillBetweenPolyCollection_7">
    <defs>
     <path id="m00676a330c" d="M 71.445 -92.356567 
L 71.445 -91.869071 
L 113.0825 -95.469969 
L 154.72 -97.75104 
L 196.3575 -104.630321 
L 237.995 -111.056076 
L 279.6325 -117.958299 
L 321.27 -131.897499 
L 362.9075 -160.263578 
L 404.545 -232.742585 
L 404.545 -237.100789 
L 404.545 -237.100789 
L 362.9075 -163.122513 
L 321.27 -133.121783 
L 279.6325 -119.120609 
L 237.995 -111.976269 
L 196.3575 -105.369609 
L 154.72 -98.412207 
L 113.0825 -95.859838 
L 71.445 -92.356567 
z
" style="stroke: #f34979; stroke-opacity: 0.2; stroke-width: 0.48"/>
    </defs>
    <g clip-path="url(#pc8894c32d6)">
     <use xlink:href="#m00676a330c" x="0" y="432" style="fill: #f34979; fill-opacity: 0.2; stroke: #f34979; stroke-opacity: 0.2; stroke-width: 0.48"/>
    </g>
   </g>
   <g id="FillBetweenPolyCollection_8">
    <defs>
     <path id="m66da594564" d="M 71.445 -91.839211 
L 71.445 -91.31594 
L 113.0825 -94.634404 
L 154.72 -95.9086 
L 196.3575 -103.699898 
L 237.995 -109.415538 
L 279.6325 -117.417981 
L 321.27 -131.784651 
L 362.9075 -160.482401 
L 404.545 -231.182658 
L 404.545 -236.568494 
L 404.545 -236.568494 
L 362.9075 -163.186716 
L 321.27 -133.467413 
L 279.6325 -118.6084 
L 237.995 -110.402329 
L 196.3575 -104.616557 
L 154.72 -96.54413 
L 113.0825 -95.088922 
L 71.445 -91.839211 
z
" style="stroke: #f13f65; stroke-opacity: 0.2; stroke-width: 0.48"/>
    </defs>
    <g clip-path="url(#pc8894c32d6)">
     <use xlink:href="#m66da594564" x="0" y="432" style="fill: #f13f65; fill-opacity: 0.2; stroke: #f13f65; stroke-opacity: 0.2; stroke-width: 0.48"/>
    </g>
   </g>
   <g id="FillBetweenPolyCollection_9">
    <defs>
     <path id="mde8dc5170e" d="M 71.445 -90.067215 
L 71.445 -89.645669 
L 113.0825 -92.099509 
L 154.72 -95.231182 
L 196.3575 -101.053817 
L 237.995 -106.657552 
L 279.6325 -114.493756 
L 321.27 -126.395773 
L 362.9075 -155.885725 
L 404.545 -227.821126 
L 404.545 -232.813943 
L 404.545 -232.813943 
L 362.9075 -158.26279 
L 321.27 -127.427239 
L 279.6325 -115.275468 
L 237.995 -107.377935 
L 196.3575 -101.841967 
L 154.72 -95.720611 
L 113.0825 -92.359041 
L 71.445 -90.067215 
z
" style="stroke: #ef3350; stroke-opacity: 0.2; stroke-width: 0.48"/>
    </defs>
    <g clip-path="url(#pc8894c32d6)">
     <use xlink:href="#mde8dc5170e" x="0" y="432" style="fill: #ef3350; fill-opacity: 0.2; stroke: #ef3350; stroke-opacity: 0.2; stroke-width: 0.48"/>
    </g>
   </g>
   <g id="FillBetweenPolyCollection_10">
    <defs>
     <path id="m3775e2897f" d="M 71.445 -88.978611 
L 71.445 -88.597959 
L 113.0825 -91.860282 
L 154.72 -94.304111 
L 196.3575 -101.175752 
L 237.995 -106.617323 
L 279.6325 -112.592299 
L 321.27 -125.755598 
L 362.9075 -154.616045 
L 404.545 -226.859633 
L 404.545 -231.07639 
L 404.545 -231.07639 
L 362.9075 -157.381542 
L 321.27 -127.129192 
L 279.6325 -113.726021 
L 237.995 -107.499599 
L 196.3575 -101.980955 
L 154.72 -94.814025 
L 113.0825 -92.270832 
L 71.445 -88.978611 
z
" style="stroke: #ed293c; stroke-opacity: 0.2; stroke-width: 0.48"/>
    </defs>
    <g clip-path="url(#pc8894c32d6)">
     <use xlink:href="#m3775e2897f" x="0" y="432" style="fill: #ed293c; fill-opacity: 0.2; stroke: #ed293c; stroke-opacity: 0.2; stroke-width: 0.48"/>
    </g>
   </g>
   <g id="FillBetweenPolyCollection_11">
    <defs>
     <path id="m2c3aa0932d" d="M 71.445 -87.524204 
L 71.445 -87.114781 
L 113.0825 -89.622253 
L 154.72 -93.421821 
L 196.3575 -98.109482 
L 237.995 -104.115171 
L 279.6325 -110.755775 
L 321.27 -122.418174 
L 362.9075 -146.11101 
L 404.545 -219.793275 
L 404.545 -224.58195 
L 404.545 -224.58195 
L 362.9075 -148.521863 
L 321.27 -123.772409 
L 279.6325 -111.690603 
L 237.995 -104.861989 
L 196.3575 -98.704467 
L 154.72 -93.9165 
L 113.0825 -89.935101 
L 71.445 -87.524204 
z
" style="stroke: #ea1e27; stroke-opacity: 0.2; stroke-width: 0.48"/>
    </defs>
    <g clip-path="url(#pc8894c32d6)">
     <use xlink:href="#m2c3aa0932d" x="0" y="432" style="fill: #ea1e27; fill-opacity: 0.2; stroke: #ea1e27; stroke-opacity: 0.2; stroke-width: 0.48"/>
    </g>
   </g>
   <g id="matplotlib.axis_1">
    <g id="xtick_1">
     <g id="line2d_1">
      <defs>
       <path id="m9670cfda0a" d="M 0 0 
L 0 3.5 
" style="stroke: #000000; stroke-width: 1.6"/>
      </defs>
      <g>
       <use xlink:href="#m9670cfda0a" x="113.0825" y="371.76125" style="stroke: #000000; stroke-width: 1.6"/>
      </g>
     </g>
     <g id="text_1">
      <!-- 20 -->
      <g transform="translate(105.0825 397.57125) scale(0.16 -0.16)">
       <defs>
        <path id="TimesNewRomanPSMT-32" d="M 2934 816 
L 2638 0 
L 138 0 
L 138 116 
Q 1241 1122 1691 1759 
Q 2141 2397 2141 2925 
Q 2141 3328 1894 3587 
Q 1647 3847 1303 3847 
Q 991 3847 742 3664 
Q 494 3481 375 3128 
L 259 3128 
Q 338 3706 661 4015 
Q 984 4325 1469 4325 
Q 1984 4325 2329 3994 
Q 2675 3663 2675 3213 
Q 2675 2891 2525 2569 
Q 2294 2063 1775 1497 
Q 997 647 803 472 
L 1909 472 
Q 2247 472 2383 497 
Q 2519 522 2628 598 
Q 2738 675 2819 816 
L 2934 816 
z
" transform="scale(0.015625)"/>
        <path id="TimesNewRomanPSMT-30" d="M 231 2094 
Q 231 2819 450 3342 
Q 669 3866 1031 4122 
Q 1313 4325 1613 4325 
Q 2100 4325 2488 3828 
Q 2972 3213 2972 2159 
Q 2972 1422 2759 906 
Q 2547 391 2217 158 
Q 1888 -75 1581 -75 
Q 975 -75 572 641 
Q 231 1244 231 2094 
z
M 844 2016 
Q 844 1141 1059 588 
Q 1238 122 1591 122 
Q 1759 122 1940 273 
Q 2122 425 2216 781 
Q 2359 1319 2359 2297 
Q 2359 3022 2209 3506 
Q 2097 3866 1919 4016 
Q 1791 4119 1609 4119 
Q 1397 4119 1231 3928 
Q 1006 3669 925 3112 
Q 844 2556 844 2016 
z
" transform="scale(0.015625)"/>
       </defs>
       <use xlink:href="#TimesNewRomanPSMT-32"/>
       <use xlink:href="#TimesNewRomanPSMT-30" transform="translate(50 0)"/>
      </g>
     </g>
    </g>
    <g id="xtick_2">
     <g id="line2d_2">
      <g>
       <use xlink:href="#m9670cfda0a" x="196.3575" y="371.76125" style="stroke: #000000; stroke-width: 1.6"/>
      </g>
     </g>
     <g id="text_2">
      <!-- 40 -->
      <g transform="translate(188.3575 397.57125) scale(0.16 -0.16)">
       <defs>
        <path id="TimesNewRomanPSMT-34" d="M 2978 1563 
L 2978 1119 
L 2409 1119 
L 2409 0 
L 1894 0 
L 1894 1119 
L 100 1119 
L 100 1519 
L 2066 4325 
L 2409 4325 
L 2409 1563 
L 2978 1563 
z
M 1894 1563 
L 1894 3666 
L 406 1563 
L 1894 1563 
z
" transform="scale(0.015625)"/>
       </defs>
       <use xlink:href="#TimesNewRomanPSMT-34"/>
       <use xlink:href="#TimesNewRomanPSMT-30" transform="translate(50 0)"/>
      </g>
     </g>
    </g>
    <g id="xtick_3">
     <g id="line2d_3">
      <g>
       <use xlink:href="#m9670cfda0a" x="279.6325" y="371.76125" style="stroke: #000000; stroke-width: 1.6"/>
      </g>
     </g>
     <g id="text_3">
      <!-- 60 -->
      <g transform="translate(271.6325 397.57125) scale(0.16 -0.16)">
       <defs>
        <path id="TimesNewRomanPSMT-36" d="M 2869 4325 
L 2869 4209 
Q 2456 4169 2195 4045 
Q 1934 3922 1679 3669 
Q 1425 3416 1258 3105 
Q 1091 2794 978 2366 
Q 1428 2675 1881 2675 
Q 2316 2675 2634 2325 
Q 2953 1975 2953 1425 
Q 2953 894 2631 456 
Q 2244 -75 1606 -75 
Q 1172 -75 869 213 
Q 275 772 275 1663 
Q 275 2231 503 2743 
Q 731 3256 1154 3653 
Q 1578 4050 1965 4187 
Q 2353 4325 2688 4325 
L 2869 4325 
z
M 925 2138 
Q 869 1716 869 1456 
Q 869 1156 980 804 
Q 1091 453 1309 247 
Q 1469 100 1697 100 
Q 1969 100 2183 356 
Q 2397 613 2397 1088 
Q 2397 1622 2184 2012 
Q 1972 2403 1581 2403 
Q 1463 2403 1327 2353 
Q 1191 2303 925 2138 
z
" transform="scale(0.015625)"/>
       </defs>
       <use xlink:href="#TimesNewRomanPSMT-36"/>
       <use xlink:href="#TimesNewRomanPSMT-30" transform="translate(50 0)"/>
      </g>
     </g>
    </g>
    <g id="xtick_4">
     <g id="line2d_4">
      <g>
       <use xlink:href="#m9670cfda0a" x="362.9075" y="371.76125" style="stroke: #000000; stroke-width: 1.6"/>
      </g>
     </g>
     <g id="text_4">
      <!-- 80 -->
      <g transform="translate(354.9075 397.57125) scale(0.16 -0.16)">
       <defs>
        <path id="TimesNewRomanPSMT-38" d="M 1228 2134 
Q 725 2547 579 2797 
Q 434 3047 434 3316 
Q 434 3728 753 4026 
Q 1072 4325 1600 4325 
Q 2113 4325 2425 4047 
Q 2738 3769 2738 3413 
Q 2738 3175 2569 2928 
Q 2400 2681 1866 2347 
Q 2416 1922 2594 1678 
Q 2831 1359 2831 1006 
Q 2831 559 2490 242 
Q 2150 -75 1597 -75 
Q 994 -75 656 303 
Q 388 606 388 966 
Q 388 1247 577 1523 
Q 766 1800 1228 2134 
z
M 1719 2469 
Q 2094 2806 2194 3001 
Q 2294 3197 2294 3444 
Q 2294 3772 2109 3958 
Q 1925 4144 1606 4144 
Q 1288 4144 1088 3959 
Q 888 3775 888 3528 
Q 888 3366 970 3203 
Q 1053 3041 1206 2894 
L 1719 2469 
z
M 1375 2016 
Q 1116 1797 991 1539 
Q 866 1281 866 981 
Q 866 578 1086 336 
Q 1306 94 1647 94 
Q 1984 94 2187 284 
Q 2391 475 2391 747 
Q 2391 972 2272 1150 
Q 2050 1481 1375 2016 
z
" transform="scale(0.015625)"/>
       </defs>
       <use xlink:href="#TimesNewRomanPSMT-38"/>
       <use xlink:href="#TimesNewRomanPSMT-30" transform="translate(50 0)"/>
      </g>
     </g>
    </g>
    <g id="text_5">
     <!-- Similaridade de entrada (%) -->
     <g transform="translate(139.037625 417.21475) scale(0.176 -0.176)">
      <defs>
       <path id="TimesNewRomanPSMT-53" d="M 2934 4334 
L 2934 2869 
L 2819 2869 
Q 2763 3291 2617 3541 
Q 2472 3791 2203 3937 
Q 1934 4084 1647 4084 
Q 1322 4084 1109 3886 
Q 897 3688 897 3434 
Q 897 3241 1031 3081 
Q 1225 2847 1953 2456 
Q 2547 2138 2764 1967 
Q 2981 1797 3098 1565 
Q 3216 1334 3216 1081 
Q 3216 600 2842 251 
Q 2469 -97 1881 -97 
Q 1697 -97 1534 -69 
Q 1438 -53 1133 45 
Q 828 144 747 144 
Q 669 144 623 97 
Q 578 50 556 -97 
L 441 -97 
L 441 1356 
L 556 1356 
Q 638 900 775 673 
Q 913 447 1195 297 
Q 1478 147 1816 147 
Q 2206 147 2432 353 
Q 2659 559 2659 841 
Q 2659 997 2573 1156 
Q 2488 1316 2306 1453 
Q 2184 1547 1640 1851 
Q 1097 2156 867 2337 
Q 638 2519 519 2737 
Q 400 2956 400 3219 
Q 400 3675 750 4004 
Q 1100 4334 1641 4334 
Q 1978 4334 2356 4169 
Q 2531 4091 2603 4091 
Q 2684 4091 2736 4139 
Q 2788 4188 2819 4334 
L 2934 4334 
z
" transform="scale(0.015625)"/>
       <path id="TimesNewRomanPSMT-69" d="M 928 4444 
Q 1059 4444 1151 4351 
Q 1244 4259 1244 4128 
Q 1244 3997 1151 3903 
Q 1059 3809 928 3809 
Q 797 3809 703 3903 
Q 609 3997 609 4128 
Q 609 4259 701 4351 
Q 794 4444 928 4444 
z
M 1188 2947 
L 1188 647 
Q 1188 378 1227 289 
Q 1266 200 1342 156 
Q 1419 113 1622 113 
L 1622 0 
L 231 0 
L 231 113 
Q 441 113 512 153 
Q 584 194 626 287 
Q 669 381 669 647 
L 669 1750 
Q 669 2216 641 2353 
Q 619 2453 572 2492 
Q 525 2531 444 2531 
Q 356 2531 231 2484 
L 188 2597 
L 1050 2947 
L 1188 2947 
z
" transform="scale(0.015625)"/>
       <path id="TimesNewRomanPSMT-6d" d="M 1050 2338 
Q 1363 2650 1419 2697 
Q 1559 2816 1721 2881 
Q 1884 2947 2044 2947 
Q 2313 2947 2506 2790 
Q 2700 2634 2766 2338 
Q 3088 2713 3309 2830 
Q 3531 2947 3766 2947 
Q 3994 2947 4170 2830 
Q 4347 2713 4450 2447 
Q 4519 2266 4519 1878 
L 4519 647 
Q 4519 378 4559 278 
Q 4591 209 4675 161 
Q 4759 113 4950 113 
L 4950 0 
L 3538 0 
L 3538 113 
L 3597 113 
Q 3781 113 3884 184 
Q 3956 234 3988 344 
Q 4000 397 4000 647 
L 4000 1878 
Q 4000 2228 3916 2372 
Q 3794 2572 3525 2572 
Q 3359 2572 3192 2489 
Q 3025 2406 2788 2181 
L 2781 2147 
L 2788 2013 
L 2788 647 
Q 2788 353 2820 281 
Q 2853 209 2943 161 
Q 3034 113 3253 113 
L 3253 0 
L 1806 0 
L 1806 113 
Q 2044 113 2133 169 
Q 2222 225 2256 338 
Q 2272 391 2272 647 
L 2272 1878 
Q 2272 2228 2169 2381 
Q 2031 2581 1784 2581 
Q 1616 2581 1450 2491 
Q 1191 2353 1050 2181 
L 1050 647 
Q 1050 366 1089 281 
Q 1128 197 1204 155 
Q 1281 113 1516 113 
L 1516 0 
L 100 0 
L 100 113 
Q 297 113 375 155 
Q 453 197 493 289 
Q 534 381 534 647 
L 534 1741 
Q 534 2213 506 2350 
Q 484 2453 437 2492 
Q 391 2531 309 2531 
Q 222 2531 100 2484 
L 53 2597 
L 916 2947 
L 1050 2947 
L 1050 2338 
z
" transform="scale(0.015625)"/>
       <path id="TimesNewRomanPSMT-6c" d="M 1184 4444 
L 1184 647 
Q 1184 378 1223 290 
Q 1263 203 1344 158 
Q 1425 113 1647 113 
L 1647 0 
L 244 0 
L 244 113 
Q 441 113 512 153 
Q 584 194 625 287 
Q 666 381 666 647 
L 666 3247 
Q 666 3731 644 3842 
Q 622 3953 573 3993 
Q 525 4034 450 4034 
Q 369 4034 244 3984 
L 191 4094 
L 1044 4444 
L 1184 4444 
z
" transform="scale(0.015625)"/>
       <path id="TimesNewRomanPSMT-61" d="M 1822 413 
Q 1381 72 1269 19 
Q 1100 -59 909 -59 
Q 613 -59 420 144 
Q 228 347 228 678 
Q 228 888 322 1041 
Q 450 1253 767 1440 
Q 1084 1628 1822 1897 
L 1822 2009 
Q 1822 2438 1686 2597 
Q 1550 2756 1291 2756 
Q 1094 2756 978 2650 
Q 859 2544 859 2406 
L 866 2225 
Q 866 2081 792 2003 
Q 719 1925 600 1925 
Q 484 1925 411 2006 
Q 338 2088 338 2228 
Q 338 2497 613 2722 
Q 888 2947 1384 2947 
Q 1766 2947 2009 2819 
Q 2194 2722 2281 2516 
Q 2338 2381 2338 1966 
L 2338 994 
Q 2338 584 2353 492 
Q 2369 400 2405 369 
Q 2441 338 2488 338 
Q 2538 338 2575 359 
Q 2641 400 2828 588 
L 2828 413 
Q 2478 -56 2159 -56 
Q 2006 -56 1915 50 
Q 1825 156 1822 413 
z
M 1822 616 
L 1822 1706 
Q 1350 1519 1213 1441 
Q 966 1303 859 1153 
Q 753 1003 753 825 
Q 753 600 887 451 
Q 1022 303 1197 303 
Q 1434 303 1822 616 
z
" transform="scale(0.015625)"/>
       <path id="TimesNewRomanPSMT-72" d="M 1038 2947 
L 1038 2303 
Q 1397 2947 1775 2947 
Q 1947 2947 2059 2842 
Q 2172 2738 2172 2600 
Q 2172 2478 2090 2393 
Q 2009 2309 1897 2309 
Q 1788 2309 1652 2417 
Q 1516 2525 1450 2525 
Q 1394 2525 1328 2463 
Q 1188 2334 1038 2041 
L 1038 669 
Q 1038 431 1097 309 
Q 1138 225 1241 169 
Q 1344 113 1538 113 
L 1538 0 
L 72 0 
L 72 113 
Q 291 113 397 181 
Q 475 231 506 341 
Q 522 394 522 644 
L 522 1753 
Q 522 2253 501 2348 
Q 481 2444 426 2487 
Q 372 2531 291 2531 
Q 194 2531 72 2484 
L 41 2597 
L 906 2947 
L 1038 2947 
z
" transform="scale(0.015625)"/>
       <path id="TimesNewRomanPSMT-64" d="M 2222 322 
Q 2013 103 1813 7 
Q 1613 -88 1381 -88 
Q 913 -88 563 304 
Q 213 697 213 1313 
Q 213 1928 600 2439 
Q 988 2950 1597 2950 
Q 1975 2950 2222 2709 
L 2222 3238 
Q 2222 3728 2198 3840 
Q 2175 3953 2125 3993 
Q 2075 4034 2000 4034 
Q 1919 4034 1784 3984 
L 1744 4094 
L 2597 4444 
L 2738 4444 
L 2738 1134 
Q 2738 631 2761 520 
Q 2784 409 2836 365 
Q 2888 322 2956 322 
Q 3041 322 3181 375 
L 3216 266 
L 2366 -88 
L 2222 -88 
L 2222 322 
z
M 2222 541 
L 2222 2016 
Q 2203 2228 2109 2403 
Q 2016 2578 1861 2667 
Q 1706 2756 1559 2756 
Q 1284 2756 1069 2509 
Q 784 2184 784 1559 
Q 784 928 1059 592 
Q 1334 256 1672 256 
Q 1956 256 2222 541 
z
" transform="scale(0.015625)"/>
       <path id="TimesNewRomanPSMT-65" d="M 681 1784 
Q 678 1147 991 784 
Q 1303 422 1725 422 
Q 2006 422 2214 576 
Q 2422 731 2563 1106 
L 2659 1044 
Q 2594 616 2278 264 
Q 1963 -88 1488 -88 
Q 972 -88 605 314 
Q 238 716 238 1394 
Q 238 2128 614 2539 
Q 991 2950 1559 2950 
Q 2041 2950 2350 2633 
Q 2659 2316 2659 1784 
L 681 1784 
z
M 681 1966 
L 2006 1966 
Q 1991 2241 1941 2353 
Q 1863 2528 1708 2628 
Q 1553 2728 1384 2728 
Q 1125 2728 920 2526 
Q 716 2325 681 1966 
z
" transform="scale(0.015625)"/>
       <path id="TimesNewRomanPSMT-20" transform="scale(0.015625)"/>
       <path id="TimesNewRomanPSMT-6e" d="M 1034 2341 
Q 1538 2947 1994 2947 
Q 2228 2947 2397 2830 
Q 2566 2713 2666 2444 
Q 2734 2256 2734 1869 
L 2734 647 
Q 2734 375 2778 278 
Q 2813 200 2889 156 
Q 2966 113 3172 113 
L 3172 0 
L 1756 0 
L 1756 113 
L 1816 113 
Q 2016 113 2095 173 
Q 2175 234 2206 353 
Q 2219 400 2219 647 
L 2219 1819 
Q 2219 2209 2117 2386 
Q 2016 2563 1775 2563 
Q 1403 2563 1034 2156 
L 1034 647 
Q 1034 356 1069 288 
Q 1113 197 1189 155 
Q 1266 113 1500 113 
L 1500 0 
L 84 0 
L 84 113 
L 147 113 
Q 366 113 442 223 
Q 519 334 519 647 
L 519 1709 
Q 519 2225 495 2337 
Q 472 2450 423 2490 
Q 375 2531 294 2531 
Q 206 2531 84 2484 
L 38 2597 
L 900 2947 
L 1034 2947 
L 1034 2341 
z
" transform="scale(0.015625)"/>
       <path id="TimesNewRomanPSMT-74" d="M 1031 3803 
L 1031 2863 
L 1700 2863 
L 1700 2644 
L 1031 2644 
L 1031 788 
Q 1031 509 1111 412 
Q 1191 316 1316 316 
Q 1419 316 1516 380 
Q 1613 444 1666 569 
L 1788 569 
Q 1678 263 1478 108 
Q 1278 -47 1066 -47 
Q 922 -47 784 33 
Q 647 113 581 261 
Q 516 409 516 719 
L 516 2644 
L 63 2644 
L 63 2747 
Q 234 2816 414 2980 
Q 594 3144 734 3369 
Q 806 3488 934 3803 
L 1031 3803 
z
" transform="scale(0.015625)"/>
       <path id="TimesNewRomanPSMT-28" d="M 1988 -1253 
L 1988 -1369 
Q 1516 -1131 1200 -813 
Q 750 -359 506 256 
Q 263 872 263 1534 
Q 263 2503 741 3301 
Q 1219 4100 1988 4444 
L 1988 4313 
Q 1603 4100 1356 3731 
Q 1109 3363 987 2797 
Q 866 2231 866 1616 
Q 866 947 969 400 
Q 1050 -31 1165 -292 
Q 1281 -553 1476 -793 
Q 1672 -1034 1988 -1253 
z
" transform="scale(0.015625)"/>
       <path id="TimesNewRomanPSMT-25" d="M 4350 4334 
L 1263 -175 
L 984 -175 
L 4072 4334 
L 4350 4334 
z
M 1138 4334 
Q 1559 4334 1792 3984 
Q 2025 3634 2025 3181 
Q 2025 2638 1762 2341 
Q 1500 2044 1131 2044 
Q 884 2044 678 2180 
Q 472 2316 348 2584 
Q 225 2853 225 3181 
Q 225 3509 350 3786 
Q 475 4063 692 4198 
Q 909 4334 1138 4334 
z
M 1128 4159 
Q 969 4159 845 3971 
Q 722 3784 722 3184 
Q 722 2750 791 2522 
Q 844 2350 956 2256 
Q 1022 2200 1119 2200 
Q 1269 2200 1375 2363 
Q 1531 2603 1531 3166 
Q 1531 3759 1378 4000 
Q 1278 4159 1128 4159 
z
M 4206 2103 
Q 4428 2103 4648 1962 
Q 4869 1822 4989 1553 
Q 5109 1284 5109 963 
Q 5109 409 4843 117 
Q 4578 -175 4216 -175 
Q 3988 -175 3773 -34 
Q 3559 106 3436 367 
Q 3313 628 3313 963 
Q 3313 1291 3436 1562 
Q 3559 1834 3773 1968 
Q 3988 2103 4206 2103 
z
M 4209 1938 
Q 4059 1938 3950 1769 
Q 3809 1550 3809 941 
Q 3809 381 3953 159 
Q 4059 0 4209 0 
Q 4353 0 4466 172 
Q 4616 400 4616 956 
Q 4616 1544 4466 1778 
Q 4363 1938 4209 1938 
z
" transform="scale(0.015625)"/>
       <path id="TimesNewRomanPSMT-29" d="M 144 4313 
L 144 4444 
Q 619 4209 934 3891 
Q 1381 3434 1625 2820 
Q 1869 2206 1869 1541 
Q 1869 572 1392 -226 
Q 916 -1025 144 -1369 
L 144 -1253 
Q 528 -1038 776 -670 
Q 1025 -303 1145 264 
Q 1266 831 1266 1447 
Q 1266 2113 1163 2663 
Q 1084 3094 967 3353 
Q 850 3613 656 3853 
Q 463 4094 144 4313 
z
" transform="scale(0.015625)"/>
      </defs>
      <use xlink:href="#TimesNewRomanPSMT-53"/>
      <use xlink:href="#TimesNewRomanPSMT-69" transform="translate(55.615234 0)"/>
      <use xlink:href="#TimesNewRomanPSMT-6d" transform="translate(83.398438 0)"/>
      <use xlink:href="#TimesNewRomanPSMT-69" transform="translate(161.181641 0)"/>
      <use xlink:href="#TimesNewRomanPSMT-6c" transform="translate(188.964844 0)"/>
      <use xlink:href="#TimesNewRomanPSMT-61" transform="translate(216.748047 0)"/>
      <use xlink:href="#TimesNewRomanPSMT-72" transform="translate(261.132812 0)"/>
      <use xlink:href="#TimesNewRomanPSMT-69" transform="translate(294.433594 0)"/>
      <use xlink:href="#TimesNewRomanPSMT-64" transform="translate(322.216797 0)"/>
      <use xlink:href="#TimesNewRomanPSMT-61" transform="translate(372.216797 0)"/>
      <use xlink:href="#TimesNewRomanPSMT-64" transform="translate(416.601562 0)"/>
      <use xlink:href="#TimesNewRomanPSMT-65" transform="translate(466.601562 0)"/>
      <use xlink:href="#TimesNewRomanPSMT-20" transform="translate(510.986328 0)"/>
      <use xlink:href="#TimesNewRomanPSMT-64" transform="translate(535.986328 0)"/>
      <use xlink:href="#TimesNewRomanPSMT-65" transform="translate(585.986328 0)"/>
      <use xlink:href="#TimesNewRomanPSMT-20" transform="translate(630.371094 0)"/>
      <use xlink:href="#TimesNewRomanPSMT-65" transform="translate(655.371094 0)"/>
      <use xlink:href="#TimesNewRomanPSMT-6e" transform="translate(699.755859 0)"/>
      <use xlink:href="#TimesNewRomanPSMT-74" transform="translate(749.755859 0)"/>
      <use xlink:href="#TimesNewRomanPSMT-72" transform="translate(777.539062 0)"/>
      <use xlink:href="#TimesNewRomanPSMT-61" transform="translate(810.839844 0)"/>
      <use xlink:href="#TimesNewRomanPSMT-64" transform="translate(855.224609 0)"/>
      <use xlink:href="#TimesNewRomanPSMT-61" transform="translate(905.224609 0)"/>
      <use xlink:href="#TimesNewRomanPSMT-20" transform="translate(949.609375 0)"/>
      <use xlink:href="#TimesNewRomanPSMT-28" transform="translate(974.609375 0)"/>
      <use xlink:href="#TimesNewRomanPSMT-25" transform="translate(1007.910156 0)"/>
      <use xlink:href="#TimesNewRomanPSMT-29" transform="translate(1091.210938 0)"/>
     </g>
    </g>
   </g>
   <g id="matplotlib.axis_2">
    <g id="ytick_1">
     <g id="line2d_5">
      <defs>
       <path id="m39f5ca52f6" d="M 0 0 
L -3.5 0 
" style="stroke: #000000; stroke-width: 1.6"/>
      </defs>
      <g>
       <use xlink:href="#m39f5ca52f6" x="54.79" y="371.76125" style="stroke: #000000; stroke-width: 1.6"/>
      </g>
     </g>
     <g id="text_6">
      <!-- 0 -->
      <g transform="translate(32.09 377.31625) scale(0.16 -0.16)">
       <use xlink:href="#TimesNewRomanPSMT-30"/>
      </g>
     </g>
    </g>
    <g id="ytick_2">
     <g id="line2d_6">
      <g>
       <use xlink:href="#m39f5ca52f6" x="54.79" y="316.22875" style="stroke: #000000; stroke-width: 1.6"/>
      </g>
     </g>
     <g id="text_7">
      <!-- 1 -->
      <g transform="translate(32.09 321.78375) scale(0.16 -0.16)">
       <defs>
        <path id="TimesNewRomanPSMT-31" d="M 750 3822 
L 1781 4325 
L 1884 4325 
L 1884 747 
Q 1884 391 1914 303 
Q 1944 216 2037 169 
Q 2131 122 2419 116 
L 2419 0 
L 825 0 
L 825 116 
Q 1125 122 1212 167 
Q 1300 213 1334 289 
Q 1369 366 1369 747 
L 1369 3034 
Q 1369 3497 1338 3628 
Q 1316 3728 1258 3775 
Q 1200 3822 1119 3822 
Q 1003 3822 797 3725 
L 750 3822 
z
" transform="scale(0.015625)"/>
       </defs>
       <use xlink:href="#TimesNewRomanPSMT-31"/>
      </g>
     </g>
    </g>
    <g id="ytick_3">
     <g id="line2d_7">
      <g>
       <use xlink:href="#m39f5ca52f6" x="54.79" y="260.69625" style="stroke: #000000; stroke-width: 1.6"/>
      </g>
     </g>
     <g id="text_8">
      <!-- 2 -->
      <g transform="translate(32.09 266.25125) scale(0.16 -0.16)">
       <use xlink:href="#TimesNewRomanPSMT-32"/>
      </g>
     </g>
    </g>
    <g id="ytick_4">
     <g id="line2d_8">
      <g>
       <use xlink:href="#m39f5ca52f6" x="54.79" y="205.16375" style="stroke: #000000; stroke-width: 1.6"/>
      </g>
     </g>
     <g id="text_9">
      <!-- 3 -->
      <g transform="translate(32.09 210.71875) scale(0.16 -0.16)">
       <defs>
        <path id="TimesNewRomanPSMT-33" d="M 325 3431 
Q 506 3859 782 4092 
Q 1059 4325 1472 4325 
Q 1981 4325 2253 3994 
Q 2459 3747 2459 3466 
Q 2459 3003 1878 2509 
Q 2269 2356 2469 2072 
Q 2669 1788 2669 1403 
Q 2669 853 2319 450 
Q 1863 -75 997 -75 
Q 569 -75 414 31 
Q 259 138 259 259 
Q 259 350 332 419 
Q 406 488 509 488 
Q 588 488 669 463 
Q 722 447 909 348 
Q 1097 250 1169 231 
Q 1284 197 1416 197 
Q 1734 197 1970 444 
Q 2206 691 2206 1028 
Q 2206 1275 2097 1509 
Q 2016 1684 1919 1775 
Q 1784 1900 1550 2001 
Q 1316 2103 1072 2103 
L 972 2103 
L 972 2197 
Q 1219 2228 1467 2375 
Q 1716 2522 1828 2728 
Q 1941 2934 1941 3181 
Q 1941 3503 1739 3701 
Q 1538 3900 1238 3900 
Q 753 3900 428 3381 
L 325 3431 
z
" transform="scale(0.015625)"/>
       </defs>
       <use xlink:href="#TimesNewRomanPSMT-33"/>
      </g>
     </g>
    </g>
    <g id="ytick_5">
     <g id="line2d_9">
      <g>
       <use xlink:href="#m39f5ca52f6" x="54.79" y="149.63125" style="stroke: #000000; stroke-width: 1.6"/>
      </g>
     </g>
     <g id="text_10">
      <!-- 4 -->
      <g transform="translate(32.09 155.18625) scale(0.16 -0.16)">
       <use xlink:href="#TimesNewRomanPSMT-34"/>
      </g>
     </g>
    </g>
    <g id="ytick_6">
     <g id="line2d_10">
      <g>
       <use xlink:href="#m39f5ca52f6" x="54.79" y="94.09875" style="stroke: #000000; stroke-width: 1.6"/>
      </g>
     </g>
     <g id="text_11">
      <!-- 5 -->
      <g transform="translate(32.09 99.65375) scale(0.16 -0.16)">
       <defs>
        <path id="TimesNewRomanPSMT-35" d="M 2778 4238 
L 2534 3706 
L 1259 3706 
L 981 3138 
Q 1809 3016 2294 2522 
Q 2709 2097 2709 1522 
Q 2709 1188 2573 903 
Q 2438 619 2231 419 
Q 2025 219 1772 97 
Q 1413 -75 1034 -75 
Q 653 -75 479 54 
Q 306 184 306 341 
Q 306 428 378 495 
Q 450 563 559 563 
Q 641 563 702 538 
Q 763 513 909 409 
Q 1144 247 1384 247 
Q 1750 247 2026 523 
Q 2303 800 2303 1197 
Q 2303 1581 2056 1914 
Q 1809 2247 1375 2428 
Q 1034 2569 447 2591 
L 1259 4238 
L 2778 4238 
z
" transform="scale(0.015625)"/>
       </defs>
       <use xlink:href="#TimesNewRomanPSMT-35"/>
      </g>
     </g>
    </g>
    <g id="ytick_7">
     <g id="line2d_11">
      <g>
       <use xlink:href="#m39f5ca52f6" x="54.79" y="38.56625" style="stroke: #000000; stroke-width: 1.6"/>
      </g>
     </g>
     <g id="text_12">
      <!-- 6 -->
      <g transform="translate(32.09 44.12125) scale(0.16 -0.16)">
       <use xlink:href="#TimesNewRomanPSMT-36"/>
      </g>
     </g>
    </g>
    <g id="text_13">
     <!-- Grau de separação de padrões ($\mathcal{S}_D$) -->
     <g transform="translate(24.218 315.096625) rotate(-90) scale(0.176 -0.176)">
      <defs>
       <path id="TimesNewRomanPSMT-47" d="M 3928 4334 
L 4038 2997 
L 3928 2997 
Q 3763 3497 3500 3750 
Q 3122 4116 2528 4116 
Q 1719 4116 1297 3475 
Q 944 2934 944 2188 
Q 944 1581 1178 1081 
Q 1413 581 1792 348 
Q 2172 116 2572 116 
Q 2806 116 3025 175 
Q 3244 234 3447 350 
L 3447 1575 
Q 3447 1894 3398 1992 
Q 3350 2091 3248 2142 
Q 3147 2194 2891 2194 
L 2891 2313 
L 4531 2313 
L 4531 2194 
L 4453 2194 
Q 4209 2194 4119 2031 
Q 4056 1916 4056 1575 
L 4056 278 
Q 3697 84 3347 -6 
Q 2997 -97 2569 -97 
Q 1341 -97 703 691 
Q 225 1281 225 2053 
Q 225 2613 494 3125 
Q 813 3734 1369 4063 
Q 1834 4334 2469 4334 
Q 2700 4334 2889 4296 
Q 3078 4259 3425 4131 
Q 3600 4066 3659 4066 
Q 3719 4066 3761 4120 
Q 3803 4175 3813 4334 
L 3928 4334 
z
" transform="scale(0.015625)"/>
       <path id="TimesNewRomanPSMT-75" d="M 2709 2863 
L 2709 1128 
Q 2709 631 2732 520 
Q 2756 409 2807 365 
Q 2859 322 2928 322 
Q 3025 322 3147 375 
L 3191 266 
L 2334 -88 
L 2194 -88 
L 2194 519 
Q 1825 119 1631 15 
Q 1438 -88 1222 -88 
Q 981 -88 804 51 
Q 628 191 559 409 
Q 491 628 491 1028 
L 491 2306 
Q 491 2509 447 2587 
Q 403 2666 317 2708 
Q 231 2750 6 2747 
L 6 2863 
L 1009 2863 
L 1009 947 
Q 1009 547 1148 422 
Q 1288 297 1484 297 
Q 1619 297 1789 381 
Q 1959 466 2194 703 
L 2194 2325 
Q 2194 2569 2105 2655 
Q 2016 2741 1734 2747 
L 1734 2863 
L 2709 2863 
z
" transform="scale(0.015625)"/>
       <path id="TimesNewRomanPSMT-73" d="M 2050 2947 
L 2050 1972 
L 1947 1972 
Q 1828 2431 1642 2597 
Q 1456 2763 1169 2763 
Q 950 2763 815 2647 
Q 681 2531 681 2391 
Q 681 2216 781 2091 
Q 878 1963 1175 1819 
L 1631 1597 
Q 2266 1288 2266 781 
Q 2266 391 1970 151 
Q 1675 -88 1309 -88 
Q 1047 -88 709 6 
Q 606 38 541 38 
Q 469 38 428 -44 
L 325 -44 
L 325 978 
L 428 978 
Q 516 541 762 319 
Q 1009 97 1316 97 
Q 1531 97 1667 223 
Q 1803 350 1803 528 
Q 1803 744 1651 891 
Q 1500 1038 1047 1263 
Q 594 1488 453 1669 
Q 313 1847 313 2119 
Q 313 2472 555 2709 
Q 797 2947 1181 2947 
Q 1350 2947 1591 2875 
Q 1750 2828 1803 2828 
Q 1853 2828 1881 2850 
Q 1909 2872 1947 2947 
L 2050 2947 
z
" transform="scale(0.015625)"/>
       <path id="TimesNewRomanPSMT-70" d="M -6 2578 
L 875 2934 
L 994 2934 
L 994 2266 
Q 1216 2644 1439 2795 
Q 1663 2947 1909 2947 
Q 2341 2947 2628 2609 
Q 2981 2197 2981 1534 
Q 2981 794 2556 309 
Q 2206 -88 1675 -88 
Q 1444 -88 1275 -22 
Q 1150 25 994 166 
L 994 -706 
Q 994 -1000 1030 -1079 
Q 1066 -1159 1155 -1206 
Q 1244 -1253 1478 -1253 
L 1478 -1369 
L -22 -1369 
L -22 -1253 
L 56 -1253 
Q 228 -1256 350 -1188 
Q 409 -1153 442 -1076 
Q 475 -1000 475 -688 
L 475 2019 
Q 475 2297 450 2372 
Q 425 2447 370 2484 
Q 316 2522 222 2522 
Q 147 2522 31 2478 
L -6 2578 
z
M 994 2081 
L 994 1013 
Q 994 666 1022 556 
Q 1066 375 1236 237 
Q 1406 100 1666 100 
Q 1978 100 2172 344 
Q 2425 663 2425 1241 
Q 2425 1897 2138 2250 
Q 1938 2494 1663 2494 
Q 1513 2494 1366 2419 
Q 1253 2363 994 2081 
z
" transform="scale(0.015625)"/>
       <path id="TimesNewRomanPSMT-e7" d="M 2631 1088 
Q 2516 522 2178 217 
Q 1841 -88 1431 -88 
Q 944 -88 581 321 
Q 219 731 219 1428 
Q 219 2103 620 2525 
Q 1022 2947 1584 2947 
Q 2006 2947 2278 2723 
Q 2550 2500 2550 2259 
Q 2550 2141 2473 2067 
Q 2397 1994 2259 1994 
Q 2075 1994 1981 2113 
Q 1928 2178 1911 2362 
Q 1894 2547 1784 2644 
Q 1675 2738 1481 2738 
Q 1169 2738 978 2506 
Q 725 2200 725 1697 
Q 725 1184 976 792 
Q 1228 400 1656 400 
Q 1963 400 2206 609 
Q 2378 753 2541 1131 
L 2631 1088 
z
M 1469 50 
L 1656 50 
L 1500 -197 
Q 1697 -247 1794 -365 
Q 1891 -484 1891 -653 
Q 1891 -878 1703 -1048 
Q 1516 -1219 1219 -1219 
Q 1103 -1219 925 -1197 
L 925 -1063 
Q 1013 -1075 1075 -1075 
Q 1234 -1075 1343 -970 
Q 1453 -866 1453 -731 
Q 1453 -638 1381 -569 
Q 1309 -500 1203 -500 
Q 1172 -500 1122 -506 
L 1469 50 
z
" transform="scale(0.015625)"/>
       <path id="TimesNewRomanPSMT-e3" d="M 1822 413 
Q 1381 72 1269 19 
Q 1100 -59 909 -59 
Q 613 -59 420 144 
Q 228 347 228 678 
Q 228 888 322 1041 
Q 450 1253 767 1440 
Q 1084 1628 1822 1897 
L 1822 2009 
Q 1822 2438 1686 2597 
Q 1550 2756 1291 2756 
Q 1094 2756 978 2650 
Q 859 2544 859 2406 
L 866 2225 
Q 866 2081 792 2003 
Q 719 1925 600 1925 
Q 484 1925 411 2006 
Q 338 2088 338 2228 
Q 338 2497 613 2722 
Q 888 2947 1384 2947 
Q 1766 2947 2009 2819 
Q 2194 2722 2281 2516 
Q 2338 2381 2338 1966 
L 2338 994 
Q 2338 584 2353 492 
Q 2369 400 2405 369 
Q 2441 338 2488 338 
Q 2538 338 2575 359 
Q 2641 400 2828 588 
L 2828 413 
Q 2478 -56 2159 -56 
Q 2006 -56 1915 50 
Q 1825 156 1822 413 
z
M 1822 616 
L 1822 1706 
Q 1350 1519 1213 1441 
Q 966 1303 859 1153 
Q 753 1003 753 825 
Q 753 600 887 451 
Q 1022 303 1197 303 
Q 1434 303 1822 616 
z
M 534 3428 
L 434 3428 
Q 447 3856 612 4047 
Q 778 4238 1022 4238 
Q 1150 4238 1256 4197 
Q 1397 4144 1655 3973 
Q 1913 3803 2038 3803 
Q 2138 3803 2214 3887 
Q 2291 3972 2334 4238 
L 2431 4238 
Q 2434 3947 2354 3776 
Q 2275 3606 2129 3511 
Q 1984 3416 1838 3416 
Q 1591 3416 1225 3666 
Q 1028 3800 959 3828 
Q 891 3856 825 3856 
Q 697 3856 622 3744 
Q 588 3691 534 3428 
z
" transform="scale(0.015625)"/>
       <path id="TimesNewRomanPSMT-6f" d="M 1600 2947 
Q 2250 2947 2644 2453 
Q 2978 2031 2978 1484 
Q 2978 1100 2793 706 
Q 2609 313 2286 112 
Q 1963 -88 1566 -88 
Q 919 -88 538 428 
Q 216 863 216 1403 
Q 216 1797 411 2186 
Q 606 2575 925 2761 
Q 1244 2947 1600 2947 
z
M 1503 2744 
Q 1338 2744 1170 2645 
Q 1003 2547 900 2300 
Q 797 2053 797 1666 
Q 797 1041 1045 587 
Q 1294 134 1700 134 
Q 2003 134 2200 384 
Q 2397 634 2397 1244 
Q 2397 2006 2069 2444 
Q 1847 2744 1503 2744 
z
" transform="scale(0.015625)"/>
       <path id="TimesNewRomanPSMT-f5" d="M 1600 2947 
Q 2250 2947 2644 2453 
Q 2978 2031 2978 1484 
Q 2978 1100 2793 706 
Q 2609 313 2286 112 
Q 1963 -88 1566 -88 
Q 919 -88 538 428 
Q 216 863 216 1403 
Q 216 1797 411 2186 
Q 606 2575 925 2761 
Q 1244 2947 1600 2947 
z
M 1503 2744 
Q 1338 2744 1170 2645 
Q 1003 2547 900 2300 
Q 797 2053 797 1666 
Q 797 1041 1045 587 
Q 1294 134 1700 134 
Q 2003 134 2200 384 
Q 2397 634 2397 1244 
Q 2397 2006 2069 2444 
Q 1847 2744 1503 2744 
z
M 700 3428 
L 600 3428 
Q 613 3856 778 4047 
Q 944 4238 1188 4238 
Q 1316 4238 1422 4197 
Q 1563 4144 1820 3973 
Q 2078 3803 2203 3803 
Q 2303 3803 2379 3887 
Q 2456 3972 2500 4238 
L 2597 4238 
Q 2600 3947 2520 3776 
Q 2441 3606 2295 3511 
Q 2150 3416 2003 3416 
Q 1756 3416 1391 3666 
Q 1194 3800 1125 3828 
Q 1056 3856 991 3856 
Q 863 3856 788 3744 
Q 753 3691 700 3428 
z
" transform="scale(0.015625)"/>
       <path id="STIXNonUnicode-Italic-e23f" d="M 243 1235 
L 410 1254 
Q 518 582 1139 365 
Q 1421 262 1766 262 
Q 2304 262 2685 515 
Q 3066 768 3066 1235 
Q 3066 1427 2883 1571 
Q 2701 1715 2445 1817 
Q 2189 1920 1929 2045 
Q 1670 2170 1488 2403 
Q 1306 2637 1306 2970 
Q 1306 3290 1507 3555 
Q 1709 3821 2000 3974 
Q 2291 4128 2572 4211 
Q 2854 4294 3059 4294 
Q 3603 4294 3948 4134 
Q 4294 3974 4294 3642 
Q 4294 3462 4182 3299 
Q 4070 3136 3853 3136 
Q 3712 3136 3603 3232 
Q 3494 3328 3494 3456 
Q 3494 3603 3590 3708 
Q 3686 3814 3686 3840 
Q 3686 3917 3628 3965 
Q 3571 4013 3456 4032 
Q 3341 4051 3264 4054 
Q 3187 4058 3059 4058 
Q 2931 4058 2745 4010 
Q 2560 3962 2352 3866 
Q 2144 3770 2000 3581 
Q 1856 3392 1856 3155 
Q 1856 2931 2057 2771 
Q 2259 2611 2550 2502 
Q 2842 2394 3133 2269 
Q 3424 2144 3625 1920 
Q 3827 1696 3827 1376 
Q 3827 902 3206 451 
Q 2586 0 1805 0 
Q 992 0 617 339 
Q 243 678 243 1235 
z
" transform="scale(0.015625)"/>
       <path id="DejaVuSans-Oblique-44" d="M 1081 4666 
L 2438 4666 
Q 3519 4666 4070 4208 
Q 4622 3750 4622 2847 
Q 4622 2250 4412 1698 
Q 4203 1147 3834 769 
Q 3463 381 2891 190 
Q 2319 0 1538 0 
L 172 0 
L 1081 4666 
z
M 1613 4147 
L 909 519 
L 1734 519 
Q 2794 519 3375 1128 
Q 3956 1738 3956 2847 
Q 3956 3519 3581 3833 
Q 3206 4147 2406 4147 
L 1613 4147 
z
" transform="scale(0.015625)"/>
      </defs>
      <use xlink:href="#TimesNewRomanPSMT-47" transform="translate(0 0.5625)"/>
      <use xlink:href="#TimesNewRomanPSMT-72" transform="translate(72.216797 0.5625)"/>
      <use xlink:href="#TimesNewRomanPSMT-61" transform="translate(105.517578 0.5625)"/>
      <use xlink:href="#TimesNewRomanPSMT-75" transform="translate(149.902344 0.5625)"/>
      <use xlink:href="#TimesNewRomanPSMT-20" transform="translate(199.902344 0.5625)"/>
      <use xlink:href="#TimesNewRomanPSMT-64" transform="translate(224.902344 0.5625)"/>
      <use xlink:href="#TimesNewRomanPSMT-65" transform="translate(274.902344 0.5625)"/>
      <use xlink:href="#TimesNewRomanPSMT-20" transform="translate(319.287109 0.5625)"/>
      <use xlink:href="#TimesNewRomanPSMT-73" transform="translate(344.287109 0.5625)"/>
      <use xlink:href="#TimesNewRomanPSMT-65" transform="translate(383.203125 0.5625)"/>
      <use xlink:href="#TimesNewRomanPSMT-70" transform="translate(427.587891 0.5625)"/>
      <use xlink:href="#TimesNewRomanPSMT-61" transform="translate(477.587891 0.5625)"/>
      <use xlink:href="#TimesNewRomanPSMT-72" transform="translate(521.972656 0.5625)"/>
      <use xlink:href="#TimesNewRomanPSMT-61" transform="translate(555.273438 0.5625)"/>
      <use xlink:href="#TimesNewRomanPSMT-e7" transform="translate(599.658203 0.5625)"/>
      <use xlink:href="#TimesNewRomanPSMT-e3" transform="translate(644.042969 0.5625)"/>
      <use xlink:href="#TimesNewRomanPSMT-6f" transform="translate(688.427734 0.5625)"/>
      <use xlink:href="#TimesNewRomanPSMT-20" transform="translate(738.427734 0.5625)"/>
      <use xlink:href="#TimesNewRomanPSMT-64" transform="translate(763.427734 0.5625)"/>
      <use xlink:href="#TimesNewRomanPSMT-65" transform="translate(813.427734 0.5625)"/>
      <use xlink:href="#TimesNewRomanPSMT-20" transform="translate(857.8125 0.5625)"/>
      <use xlink:href="#TimesNewRomanPSMT-70" transform="translate(882.8125 0.5625)"/>
      <use xlink:href="#TimesNewRomanPSMT-61" transform="translate(932.8125 0.5625)"/>
      <use xlink:href="#TimesNewRomanPSMT-64" transform="translate(977.197266 0.5625)"/>
      <use xlink:href="#TimesNewRomanPSMT-72" transform="translate(1027.197266 0.5625)"/>
      <use xlink:href="#TimesNewRomanPSMT-f5" transform="translate(1060.498047 0.5625)"/>
      <use xlink:href="#TimesNewRomanPSMT-65" transform="translate(1110.498047 0.5625)"/>
      <use xlink:href="#TimesNewRomanPSMT-73" transform="translate(1154.882812 0.5625)"/>
      <use xlink:href="#TimesNewRomanPSMT-20" transform="translate(1193.798828 0.5625)"/>
      <use xlink:href="#TimesNewRomanPSMT-28" transform="translate(1218.798828 0.5625)"/>
      <use xlink:href="#STIXNonUnicode-Italic-e23f" transform="translate(1252.099609 0.5625)"/>
      <use xlink:href="#DejaVuSans-Oblique-44" transform="translate(1316.456635 -15.84375) scale(0.7)"/>
      <use xlink:href="#TimesNewRomanPSMT-29" transform="translate(1373.092377 0.5625)"/>
     </g>
    </g>
   </g>
   <g id="line2d_12">
    <path d="M 54.79 316.22875 
L 421.2 316.22875 
" clip-path="url(#pc8894c32d6)" style="fill: none; stroke-dasharray: 22.2,9.6; stroke-dashoffset: 0; stroke: #808080; stroke-width: 6"/>
   </g>
   <g id="line2d_13">
    <path d="M 71.445 328.108665 
L 113.0825 322.318472 
L 154.72 320.550516 
L 196.3575 309.454646 
L 237.995 302.480293 
L 279.6325 290.668754 
L 321.27 269.580657 
L 362.9075 228.935514 
L 404.545 108.492521 
" clip-path="url(#pc8894c32d6)" style="fill: none; stroke: #120406; stroke-opacity: 0.9; stroke-width: 6; stroke-linecap: round"/>
   </g>
   <g id="line2d_14">
    <path d="M 71.445 329.454973 
L 113.0825 325.703167 
L 154.72 320.949693 
L 196.3575 311.577325 
L 237.995 305.66799 
L 279.6325 291.645706 
L 321.27 276.330422 
L 362.9075 239.847169 
L 404.545 125.916023 
" clip-path="url(#pc8894c32d6)" style="fill: none; stroke: #ff80df; stroke-opacity: 0.05; stroke-width: 6; stroke-linecap: round"/>
   </g>
   <g id="line2d_15">
    <path d="M 71.445 332.144955 
L 113.0825 326.711026 
L 154.72 321.495619 
L 196.3575 314.47297 
L 237.995 305.322396 
L 279.6325 294.979149 
L 321.27 277.731365 
L 362.9075 244.715109 
L 404.545 143.027278 
" clip-path="url(#pc8894c32d6)" style="fill: none; stroke: #fd75cb; stroke-opacity: 0.8; stroke-width: 6; stroke-linecap: round"/>
   </g>
   <g id="line2d_16">
    <path d="M 71.445 335.629803 
L 113.0825 329.604664 
L 154.72 326.739783 
L 196.3575 319.463861 
L 237.995 311.519539 
L 279.6325 302.084718 
L 321.27 286.467965 
L 362.9075 249.415459 
L 404.545 160.848195 
" clip-path="url(#pc8894c32d6)" style="fill: none; stroke: #fa6ab6; stroke-opacity: 0.05; stroke-width: 6; stroke-linecap: round"/>
   </g>
   <g id="line2d_17">
    <path d="M 71.445 337.172651 
L 113.0825 332.720192 
L 154.72 330.164374 
L 196.3575 322.565255 
L 237.995 316.00908 
L 279.6325 306.846595 
L 321.27 290.226407 
L 362.9075 257.544194 
L 404.545 169.531786 
" clip-path="url(#pc8894c32d6)" style="fill: none; stroke: #f860a2; stroke-opacity: 0.05; stroke-width: 6; stroke-linecap: round"/>
   </g>
   <g id="line2d_18">
    <path d="M 71.445 338.495153 
L 113.0825 334.391718 
L 154.72 331.247136 
L 196.3575 324.356975 
L 237.995 319.496902 
L 279.6325 309.090986 
L 321.27 293.622618 
L 362.9075 266.536138 
L 404.545 192.545666 
" clip-path="url(#pc8894c32d6)" style="fill: none; stroke: #f6548d; stroke-opacity: 0.05; stroke-width: 6; stroke-linecap: round"/>
   </g>
   <g id="line2d_19">
    <path d="M 71.445 339.887181 
L 113.0825 336.335097 
L 154.72 333.918377 
L 196.3575 327.000035 
L 237.995 320.483828 
L 279.6325 313.460546 
L 321.27 299.490359 
L 362.9075 270.306954 
L 404.545 197.078313 
" clip-path="url(#pc8894c32d6)" style="fill: none; stroke: #f34979; stroke-opacity: 0.05; stroke-width: 6; stroke-linecap: round"/>
   </g>
   <g id="line2d_20">
    <path d="M 71.445 340.422425 
L 113.0825 337.138337 
L 154.72 335.773635 
L 196.3575 327.841772 
L 237.995 322.091066 
L 279.6325 313.986809 
L 321.27 299.373968 
L 362.9075 270.165442 
L 404.545 198.124424 
" clip-path="url(#pc8894c32d6)" style="fill: none; stroke: #f13f65; stroke-opacity: 0.05; stroke-width: 6; stroke-linecap: round"/>
   </g>
   <g id="line2d_21">
    <path d="M 71.445 342.143558 
L 113.0825 339.770725 
L 154.72 336.524103 
L 196.3575 330.552108 
L 237.995 324.982256 
L 279.6325 317.115388 
L 321.27 305.088494 
L 362.9075 274.925743 
L 404.545 201.682466 
" clip-path="url(#pc8894c32d6)" style="fill: none; stroke: #ef3350; stroke-opacity: 0.05; stroke-width: 6; stroke-linecap: round"/>
   </g>
   <g id="line2d_22">
    <path d="M 71.445 343.211715 
L 113.0825 339.934443 
L 154.72 337.440932 
L 196.3575 330.421647 
L 237.995 324.941539 
L 279.6325 318.84084 
L 321.27 305.557605 
L 362.9075 276.001207 
L 404.545 203.031989 
" clip-path="url(#pc8894c32d6)" style="fill: none; stroke: #ed293c; stroke-opacity: 0.05; stroke-width: 6; stroke-linecap: round"/>
   </g>
   <g id="line2d_23">
    <path d="M 71.445 344.680508 
L 113.0825 342.221323 
L 154.72 338.330839 
L 196.3575 333.593025 
L 237.995 327.51142 
L 279.6325 320.776811 
L 321.27 308.904708 
L 362.9075 284.683563 
L 404.545 209.812388 
" clip-path="url(#pc8894c32d6)" style="fill: none; stroke: #ea1e27; stroke-opacity: 0.8; stroke-width: 6; stroke-linecap: round"/>
   </g>
   <g id="patch_3">
    <path d="M 54.79 371.76125 
L 54.79 10.8 
" style="fill: none; stroke: #000000; stroke-width: 0.8; stroke-linejoin: miter; stroke-linecap: square"/>
   </g>
   <g id="patch_4">
    <path d="M 421.2 371.76125 
L 421.2 10.8 
" style="fill: none; stroke: #000000; stroke-width: 0.8; stroke-linejoin: miter; stroke-linecap: square"/>
   </g>
   <g id="patch_5">
    <path d="M 54.79 371.76125 
L 421.2 371.76125 
" style="fill: none; stroke: #000000; stroke-width: 0.8; stroke-linejoin: miter; stroke-linecap: square"/>
   </g>
   <g id="patch_6">
    <path d="M 54.79 10.8 
L 421.2 10.8 
" style="fill: none; stroke: #000000; stroke-width: 0.8; stroke-linejoin: miter; stroke-linecap: square"/>
   </g>
   <g id="legend_1">
    <g id="line2d_24">
     <path d="M 120.7575 30.8 
L 136.7575 30.8 
L 152.7575 30.8 
" style="fill: none; stroke: #120406; stroke-opacity: 0.9; stroke-width: 6; stroke-linecap: round"/>
    </g>
    <g id="text_14">
     <!-- Controle -->
     <g transform="translate(165.5575 36.4) scale(0.16 -0.16)">
      <defs>
       <path id="TimesNewRomanPSMT-43" d="M 3853 4334 
L 3950 2894 
L 3853 2894 
Q 3659 3541 3300 3825 
Q 2941 4109 2438 4109 
Q 2016 4109 1675 3895 
Q 1334 3681 1139 3212 
Q 944 2744 944 2047 
Q 944 1472 1128 1050 
Q 1313 628 1683 403 
Q 2053 178 2528 178 
Q 2941 178 3256 354 
Q 3572 531 3950 1056 
L 4047 994 
Q 3728 428 3303 165 
Q 2878 -97 2294 -97 
Q 1241 -97 663 684 
Q 231 1266 231 2053 
Q 231 2688 515 3219 
Q 800 3750 1298 4042 
Q 1797 4334 2388 4334 
Q 2847 4334 3294 4109 
Q 3425 4041 3481 4041 
Q 3566 4041 3628 4100 
Q 3709 4184 3744 4334 
L 3853 4334 
z
" transform="scale(0.015625)"/>
      </defs>
      <use xlink:href="#TimesNewRomanPSMT-43"/>
      <use xlink:href="#TimesNewRomanPSMT-6f" transform="translate(66.699219 0)"/>
      <use xlink:href="#TimesNewRomanPSMT-6e" transform="translate(116.699219 0)"/>
      <use xlink:href="#TimesNewRomanPSMT-74" transform="translate(166.699219 0)"/>
      <use xlink:href="#TimesNewRomanPSMT-72" transform="translate(194.482422 0)"/>
      <use xlink:href="#TimesNewRomanPSMT-6f" transform="translate(227.783203 0)"/>
      <use xlink:href="#TimesNewRomanPSMT-6c" transform="translate(277.783203 0)"/>
      <use xlink:href="#TimesNewRomanPSMT-65" transform="translate(305.566406 0)"/>
     </g>
    </g>
    <g id="line2d_25">
     <path d="M 120.7575 53.4225 
L 136.7575 53.4225 
L 152.7575 53.4225 
" style="fill: none; stroke: #fd75cb; stroke-opacity: 0.8; stroke-width: 6; stroke-linecap: round"/>
    </g>
    <g id="text_15">
     <!-- Neurogênese: 20% de conectividade -->
     <g transform="translate(165.5575 59.0225) scale(0.16 -0.16)">
      <defs>
       <path id="TimesNewRomanPSMT-4e" d="M -84 4238 
L 1066 4238 
L 3656 1059 
L 3656 3503 
Q 3656 3894 3569 3991 
Q 3453 4122 3203 4122 
L 3056 4122 
L 3056 4238 
L 4531 4238 
L 4531 4122 
L 4381 4122 
Q 4113 4122 4000 3959 
Q 3931 3859 3931 3503 
L 3931 -69 
L 3819 -69 
L 1025 3344 
L 1025 734 
Q 1025 344 1109 247 
Q 1228 116 1475 116 
L 1625 116 
L 1625 0 
L 150 0 
L 150 116 
L 297 116 
Q 569 116 681 278 
Q 750 378 750 734 
L 750 3681 
Q 566 3897 470 3965 
Q 375 4034 191 4094 
Q 100 4122 -84 4122 
L -84 4238 
z
" transform="scale(0.015625)"/>
       <path id="TimesNewRomanPSMT-67" d="M 966 1044 
Q 703 1172 562 1401 
Q 422 1631 422 1909 
Q 422 2334 742 2640 
Q 1063 2947 1563 2947 
Q 1972 2947 2272 2747 
L 2878 2747 
Q 3013 2747 3034 2739 
Q 3056 2731 3066 2713 
Q 3084 2684 3084 2613 
Q 3084 2531 3069 2500 
Q 3059 2484 3036 2475 
Q 3013 2466 2878 2466 
L 2506 2466 
Q 2681 2241 2681 1891 
Q 2681 1491 2375 1206 
Q 2069 922 1553 922 
Q 1341 922 1119 984 
Q 981 866 932 777 
Q 884 688 884 625 
Q 884 572 936 522 
Q 988 472 1138 450 
Q 1225 438 1575 428 
Q 2219 413 2409 384 
Q 2700 344 2873 169 
Q 3047 -6 3047 -263 
Q 3047 -616 2716 -925 
Q 2228 -1381 1444 -1381 
Q 841 -1381 425 -1109 
Q 191 -953 191 -784 
Q 191 -709 225 -634 
Q 278 -519 444 -313 
Q 466 -284 763 25 
Q 600 122 533 198 
Q 466 275 466 372 
Q 466 481 555 628 
Q 644 775 966 1044 
z
M 1509 2797 
Q 1278 2797 1122 2612 
Q 966 2428 966 2047 
Q 966 1553 1178 1281 
Q 1341 1075 1591 1075 
Q 1828 1075 1981 1253 
Q 2134 1431 2134 1813 
Q 2134 2309 1919 2591 
Q 1759 2797 1509 2797 
z
M 934 0 
Q 788 -159 713 -296 
Q 638 -434 638 -550 
Q 638 -700 819 -813 
Q 1131 -1006 1722 -1006 
Q 2284 -1006 2551 -807 
Q 2819 -609 2819 -384 
Q 2819 -222 2659 -153 
Q 2497 -84 2016 -72 
Q 1313 -53 934 0 
z
" transform="scale(0.015625)"/>
       <path id="TimesNewRomanPSMT-ea" d="M 681 1784 
Q 678 1147 991 784 
Q 1303 422 1725 422 
Q 2006 422 2214 576 
Q 2422 731 2563 1106 
L 2659 1044 
Q 2594 616 2278 264 
Q 1963 -88 1488 -88 
Q 972 -88 605 314 
Q 238 716 238 1394 
Q 238 2128 614 2539 
Q 991 2950 1559 2950 
Q 2041 2950 2350 2633 
Q 2659 2316 2659 1784 
L 681 1784 
z
M 681 1966 
L 2006 1966 
Q 1991 2241 1941 2353 
Q 1863 2528 1708 2628 
Q 1553 2728 1384 2728 
Q 1125 2728 920 2526 
Q 716 2325 681 1966 
z
M 1259 4328 
L 1834 4328 
L 2428 3294 
L 2331 3294 
L 1478 3959 
L 763 3294 
L 669 3294 
L 1259 4328 
z
" transform="scale(0.015625)"/>
       <path id="TimesNewRomanPSMT-3a" d="M 903 2950 
Q 1047 2950 1148 2848 
Q 1250 2747 1250 2603 
Q 1250 2459 1148 2357 
Q 1047 2256 903 2256 
Q 759 2256 657 2357 
Q 556 2459 556 2603 
Q 556 2747 657 2848 
Q 759 2950 903 2950 
z
M 897 609 
Q 1044 609 1145 506 
Q 1247 403 1247 259 
Q 1247 116 1144 14 
Q 1041 -88 897 -88 
Q 753 -88 651 14 
Q 550 116 550 259 
Q 550 403 651 506 
Q 753 609 897 609 
z
" transform="scale(0.015625)"/>
       <path id="TimesNewRomanPSMT-63" d="M 2631 1088 
Q 2516 522 2178 217 
Q 1841 -88 1431 -88 
Q 944 -88 581 321 
Q 219 731 219 1428 
Q 219 2103 620 2525 
Q 1022 2947 1584 2947 
Q 2006 2947 2278 2723 
Q 2550 2500 2550 2259 
Q 2550 2141 2473 2067 
Q 2397 1994 2259 1994 
Q 2075 1994 1981 2113 
Q 1928 2178 1911 2362 
Q 1894 2547 1784 2644 
Q 1675 2738 1481 2738 
Q 1169 2738 978 2506 
Q 725 2200 725 1697 
Q 725 1184 976 792 
Q 1228 400 1656 400 
Q 1963 400 2206 609 
Q 2378 753 2541 1131 
L 2631 1088 
z
" transform="scale(0.015625)"/>
       <path id="TimesNewRomanPSMT-76" d="M 53 2863 
L 1400 2863 
L 1400 2747 
L 1313 2747 
Q 1191 2747 1127 2687 
Q 1063 2628 1063 2528 
Q 1063 2419 1128 2269 
L 1794 688 
L 2463 2328 
Q 2534 2503 2534 2594 
Q 2534 2638 2509 2666 
Q 2475 2713 2422 2730 
Q 2369 2747 2206 2747 
L 2206 2863 
L 3141 2863 
L 3141 2747 
Q 2978 2734 2916 2681 
Q 2806 2588 2719 2369 
L 1703 -88 
L 1575 -88 
L 553 2328 
Q 484 2497 421 2570 
Q 359 2644 263 2694 
Q 209 2722 53 2747 
L 53 2863 
z
" transform="scale(0.015625)"/>
      </defs>
      <use xlink:href="#TimesNewRomanPSMT-4e"/>
      <use xlink:href="#TimesNewRomanPSMT-65" transform="translate(72.216797 0)"/>
      <use xlink:href="#TimesNewRomanPSMT-75" transform="translate(116.601562 0)"/>
      <use xlink:href="#TimesNewRomanPSMT-72" transform="translate(166.601562 0)"/>
      <use xlink:href="#TimesNewRomanPSMT-6f" transform="translate(199.902344 0)"/>
      <use xlink:href="#TimesNewRomanPSMT-67" transform="translate(249.902344 0)"/>
      <use xlink:href="#TimesNewRomanPSMT-ea" transform="translate(299.902344 0)"/>
      <use xlink:href="#TimesNewRomanPSMT-6e" transform="translate(344.287109 0)"/>
      <use xlink:href="#TimesNewRomanPSMT-65" transform="translate(394.287109 0)"/>
      <use xlink:href="#TimesNewRomanPSMT-73" transform="translate(438.671875 0)"/>
      <use xlink:href="#TimesNewRomanPSMT-65" transform="translate(477.587891 0)"/>
      <use xlink:href="#TimesNewRomanPSMT-3a" transform="translate(521.972656 0)"/>
      <use xlink:href="#TimesNewRomanPSMT-20" transform="translate(549.755859 0)"/>
      <use xlink:href="#TimesNewRomanPSMT-32" transform="translate(574.755859 0)"/>
      <use xlink:href="#TimesNewRomanPSMT-30" transform="translate(624.755859 0)"/>
      <use xlink:href="#TimesNewRomanPSMT-25" transform="translate(674.755859 0)"/>
      <use xlink:href="#TimesNewRomanPSMT-20" transform="translate(758.056641 0)"/>
      <use xlink:href="#TimesNewRomanPSMT-64" transform="translate(783.056641 0)"/>
      <use xlink:href="#TimesNewRomanPSMT-65" transform="translate(833.056641 0)"/>
      <use xlink:href="#TimesNewRomanPSMT-20" transform="translate(877.441406 0)"/>
      <use xlink:href="#TimesNewRomanPSMT-63" transform="translate(902.441406 0)"/>
      <use xlink:href="#TimesNewRomanPSMT-6f" transform="translate(946.826172 0)"/>
      <use xlink:href="#TimesNewRomanPSMT-6e" transform="translate(996.826172 0)"/>
      <use xlink:href="#TimesNewRomanPSMT-65" transform="translate(1046.826172 0)"/>
      <use xlink:href="#TimesNewRomanPSMT-63" transform="translate(1091.210938 0)"/>
      <use xlink:href="#TimesNewRomanPSMT-74" transform="translate(1135.595703 0)"/>
      <use xlink:href="#TimesNewRomanPSMT-69" transform="translate(1163.378906 0)"/>
      <use xlink:href="#TimesNewRomanPSMT-76" transform="translate(1191.162109 0)"/>
      <use xlink:href="#TimesNewRomanPSMT-69" transform="translate(1241.162109 0)"/>
      <use xlink:href="#TimesNewRomanPSMT-64" transform="translate(1268.945312 0)"/>
      <use xlink:href="#TimesNewRomanPSMT-61" transform="translate(1318.945312 0)"/>
      <use xlink:href="#TimesNewRomanPSMT-64" transform="translate(1363.330078 0)"/>
      <use xlink:href="#TimesNewRomanPSMT-65" transform="translate(1413.330078 0)"/>
     </g>
    </g>
    <g id="line2d_26">
     <path d="M 120.7575 76.075 
L 136.7575 76.075 
L 152.7575 76.075 
" style="fill: none; stroke: #ea1e27; stroke-opacity: 0.8; stroke-width: 6; stroke-linecap: round"/>
    </g>
    <g id="text_16">
     <!-- Neurogênese: 100% de conectividade -->
     <g transform="translate(165.5575 81.675) scale(0.16 -0.16)">
      <use xlink:href="#TimesNewRomanPSMT-4e"/>
      <use xlink:href="#TimesNewRomanPSMT-65" transform="translate(72.216797 0)"/>
      <use xlink:href="#TimesNewRomanPSMT-75" transform="translate(116.601562 0)"/>
      <use xlink:href="#TimesNewRomanPSMT-72" transform="translate(166.601562 0)"/>
      <use xlink:href="#TimesNewRomanPSMT-6f" transform="translate(199.902344 0)"/>
      <use xlink:href="#TimesNewRomanPSMT-67" transform="translate(249.902344 0)"/>
      <use xlink:href="#TimesNewRomanPSMT-ea" transform="translate(299.902344 0)"/>
      <use xlink:href="#TimesNewRomanPSMT-6e" transform="translate(344.287109 0)"/>
      <use xlink:href="#TimesNewRomanPSMT-65" transform="translate(394.287109 0)"/>
      <use xlink:href="#TimesNewRomanPSMT-73" transform="translate(438.671875 0)"/>
      <use xlink:href="#TimesNewRomanPSMT-65" transform="translate(477.587891 0)"/>
      <use xlink:href="#TimesNewRomanPSMT-3a" transform="translate(521.972656 0)"/>
      <use xlink:href="#TimesNewRomanPSMT-20" transform="translate(549.755859 0)"/>
      <use xlink:href="#TimesNewRomanPSMT-31" transform="translate(574.755859 0)"/>
      <use xlink:href="#TimesNewRomanPSMT-30" transform="translate(624.755859 0)"/>
      <use xlink:href="#TimesNewRomanPSMT-30" transform="translate(674.755859 0)"/>
      <use xlink:href="#TimesNewRomanPSMT-25" transform="translate(724.755859 0)"/>
      <use xlink:href="#TimesNewRomanPSMT-20" transform="translate(808.056641 0)"/>
      <use xlink:href="#TimesNewRomanPSMT-64" transform="translate(833.056641 0)"/>
      <use xlink:href="#TimesNewRomanPSMT-65" transform="translate(883.056641 0)"/>
      <use xlink:href="#TimesNewRomanPSMT-20" transform="translate(927.441406 0)"/>
      <use xlink:href="#TimesNewRomanPSMT-63" transform="translate(952.441406 0)"/>
      <use xlink:href="#TimesNewRomanPSMT-6f" transform="translate(996.826172 0)"/>
      <use xlink:href="#TimesNewRomanPSMT-6e" transform="translate(1046.826172 0)"/>
      <use xlink:href="#TimesNewRomanPSMT-65" transform="translate(1096.826172 0)"/>
      <use xlink:href="#TimesNewRomanPSMT-63" transform="translate(1141.210938 0)"/>
      <use xlink:href="#TimesNewRomanPSMT-74" transform="translate(1185.595703 0)"/>
      <use xlink:href="#TimesNewRomanPSMT-69" transform="translate(1213.378906 0)"/>
      <use xlink:href="#TimesNewRomanPSMT-76" transform="translate(1241.162109 0)"/>
      <use xlink:href="#TimesNewRomanPSMT-69" transform="translate(1291.162109 0)"/>
      <use xlink:href="#TimesNewRomanPSMT-64" transform="translate(1318.945312 0)"/>
      <use xlink:href="#TimesNewRomanPSMT-61" transform="translate(1368.945312 0)"/>
      <use xlink:href="#TimesNewRomanPSMT-64" transform="translate(1413.330078 0)"/>
      <use xlink:href="#TimesNewRomanPSMT-65" transform="translate(1463.330078 0)"/>
     </g>
    </g>
   </g>
  </g>
 </g>
 <defs>
  <clipPath id="pc8894c32d6">
   <rect x="54.79" y="10.8" width="366.41" height="360.96125"/>
  </clipPath>
 </defs>
</svg>
