<svg xmlns="http://www.w3.org/2000/svg" xmlns:xlink="http://www.w3.org/1999/xlink" xmlns:lucid="lucid" width="2147.5" height="2250"><g transform="translate(65 625)" lucid:page-tab-id="0_0"><path d="M160-614a6 6 0 0 1 6-6h1458a6 6 0 0 1 6 6V756a6 6 0 0 1-6 6H166a6 6 0 0 1-6-6z" fill="#fff"/><path d="M263.2-620h97.2m48.6 0h97.2m48.6 0H652m48.6 0h97.2m48.6 0h97.2m48.6 0h97.2m48.6 0h97.2m48.6 0h97.2m48.6 0h97.2m48.6 0h48.6l.94.07.9.22.88.35.8.5.72.6.6.72.5.8.37.88.23.9.07.95v50.74m0 50.74v101.48m0 50.74v101.5m0 50.73v101.48m0 50.75V45.63m0 50.74v101.48m0 50.74v101.47m0 50.75V502.3m0 50.74v101.48m0 50.74V756l-.07.94-.22.9-.35.88-.5.8-.6.72-.72.6-.8.5-.88.37-.9.23-.95.07h-48.6m-48.6 0h-97.2m-48.6 0h-97.2m-48.6 0H1138m-48.6 0h-97.2m-48.6 0h-97.2m-48.6 0h-97.2m-48.6 0h-97.2m-48.6 0H409m-48.6 0h-97.2m-48.6 0H166l-.94-.07-.9-.22-.88-.35-.8-.5-.72-.6-.6-.72-.5-.8-.37-.88-.23-.9-.07-.95v-50.74m0-50.74V553.04m0-50.74V400.8m0-50.73V248.6m0-50.75V96.37m0-50.74V-55.85m0-50.74v-101.47m0-50.75V-360.3m0-50.74v-101.48m0-50.74V-614l.07-.94.22-.9.35-.88.5-.8.6-.72.72-.6.8-.5.88-.37.9-.23.95-.07h48.6" stroke="#979ea8" stroke-width="5" fill="none"/><path d="M1020 788a6 6 0 0 1 6-6h1048a6 6 0 0 1 6 6v628a6 6 0 0 1-6 6H1026a6 6 0 0 1-6-6z" fill="#fff"/><path d="M1125.8 782h99.82m49.9 0h99.8m49.92 0h99.8m49.9 0h99.82m49.9 0h99.82m49.9 0h99.8m49.9 0H2074l.94.07.9.22.88.35.8.5.72.6.6.72.5.8.37.88.23.9.07.95v52.33m0 52.34v104.66m0 52.34v104.66m0 52.34v104.66m0 52.34V1416l-.07.94-.22.9-.35.88-.5.8-.6.72-.72.6-.8.5-.88.37-.9.23-.95.07h-49.9m-49.9 0h-99.82m-49.9 0h-99.8m-49.92 0h-99.8m-49.9 0h-99.82m-49.9 0h-99.82m-49.9 0h-99.8m-49.9 0h-49.92l-.94-.07-.9-.22-.88-.35-.8-.5-.72-.6-.6-.72-.5-.8-.37-.88-.23-.9-.07-.95v-52.33m0-52.34v-104.66m0-52.34v-104.66m0-52.34V892.67m0-52.34V788l.07-.94.22-.9.35-.88.5-.8.6-.72.72-.6.8-.5.88-.37.9-.23.95-.07h49.9" stroke="#979ea8" stroke-width="5" fill="none"/><path d="M182.5 302.5h1425" fill="none"/><path d="M185 302.5c0 1.38-1.12 2.5-2.5 2.5s-2.5-1.12-2.5-2.5 1.12-2.5 2.5-2.5 2.5 1.12 2.5 2.5zm9.97 0c0 1.38-1.12 2.5-2.5 2.5-1.4 0-2.5-1.12-2.5-2.5s1.1-2.5 2.5-2.5c1.38 0 2.5 1.12 2.5 2.5zm9.96 0c0 1.38-1.12 2.5-2.5 2.5s-2.5-1.12-2.5-2.5 1.12-2.5 2.5-2.5 2.5 1.12 2.5 2.5zm9.97 0c0 1.38-1.12 2.5-2.5 2.5-1.4 0-2.5-1.12-2.5-2.5s1.1-2.5 2.5-2.5c1.38 0 2.5 1.12 2.5 2.5zm9.96 0c0 1.38-1.12 2.5-2.5 2.5s-2.5-1.12-2.5-2.5 1.12-2.5 2.5-2.5 2.5 1.12 2.5 2.5zm9.96 0c0 1.38-1.1 2.5-2.5 2.5-1.38 0-2.5-1.12-2.5-2.5s1.12-2.5 2.5-2.5c1.4 0 2.5 1.12 2.5 2.5zm9.97 0c0 1.38-1.13 2.5-2.5 2.5-1.4 0-2.5-1.12-2.5-2.5s1.1-2.5 2.5-2.5c1.37 0 2.5 1.12 2.5 2.5zm9.95 0c0 1.38-1.1 2.5-2.5 2.5-1.38 0-2.5-1.12-2.5-2.5s1.13-2.5 2.5-2.5c1.4 0 2.5 1.12 2.5 2.5zm9.97 0c0 1.38-1.12 2.5-2.5 2.5s-2.5-1.12-2.5-2.5 1.12-2.5 2.5-2.5 2.5 1.12 2.5 2.5zm9.96 0c0 1.38-1.1 2.5-2.5 2.5-1.38 0-2.5-1.12-2.5-2.5s1.13-2.5 2.5-2.5c1.4 0 2.5 1.12 2.5 2.5zm9.97 0c0 1.38-1.12 2.5-2.5 2.5s-2.5-1.12-2.5-2.5 1.12-2.5 2.5-2.5 2.5 1.12 2.5 2.5zm9.97 0c0 1.38-1.12 2.5-2.5 2.5s-2.5-1.12-2.5-2.5 1.12-2.5 2.5-2.5 2.5 1.12 2.5 2.5zm9.96 0c0 1.38-1.12 2.5-2.5 2.5s-2.5-1.12-2.5-2.5 1.12-2.5 2.5-2.5 2.5 1.12 2.5 2.5zm9.97 0c0 1.38-1.12 2.5-2.5 2.5s-2.5-1.12-2.5-2.5 1.12-2.5 2.5-2.5 2.5 1.12 2.5 2.5zm9.96 0c0 1.38-1.1 2.5-2.5 2.5-1.37 0-2.5-1.12-2.5-2.5s1.13-2.5 2.5-2.5c1.4 0 2.5 1.12 2.5 2.5zm9.98 0c0 1.38-1.12 2.5-2.5 2.5s-2.5-1.12-2.5-2.5 1.12-2.5 2.5-2.5 2.5 1.12 2.5 2.5zm9.96 0c0 1.38-1.12 2.5-2.5 2.5s-2.5-1.12-2.5-2.5 1.12-2.5 2.5-2.5 2.5 1.12 2.5 2.5zm9.97 0c0 1.38-1.1 2.5-2.5 2.5-1.38 0-2.5-1.12-2.5-2.5s1.13-2.5 2.5-2.5c1.4 0 2.5 1.12 2.5 2.5zm9.97 0c0 1.38-1.12 2.5-2.5 2.5s-2.5-1.12-2.5-2.5 1.12-2.5 2.5-2.5 2.5 1.12 2.5 2.5zm9.97 0c0 1.38-1.12 2.5-2.5 2.5s-2.5-1.12-2.5-2.5 1.12-2.5 2.5-2.5 2.5 1.12 2.5 2.5zm9.96 0c0 1.38-1.12 2.5-2.5 2.5s-2.5-1.12-2.5-2.5 1.12-2.5 2.5-2.5 2.5 1.12 2.5 2.5zm9.97 0c0 1.38-1.12 2.5-2.5 2.5s-2.5-1.12-2.5-2.5 1.12-2.5 2.5-2.5 2.5 1.12 2.5 2.5zm9.96 0c0 1.38-1.12 2.5-2.5 2.5s-2.5-1.12-2.5-2.5 1.12-2.5 2.5-2.5 2.5 1.12 2.5 2.5zm9.97 0c0 1.38-1.12 2.5-2.5 2.5s-2.5-1.12-2.5-2.5 1.12-2.5 2.5-2.5 2.5 1.12 2.5 2.5zm9.96 0c0 1.38-1.12 2.5-2.5 2.5s-2.5-1.12-2.5-2.5 1.12-2.5 2.5-2.5 2.5 1.12 2.5 2.5zm9.97 0c0 1.38-1.12 2.5-2.5 2.5s-2.5-1.12-2.5-2.5 1.12-2.5 2.5-2.5 2.5 1.12 2.5 2.5zm9.96 0c0 1.38-1.13 2.5-2.5 2.5-1.4 0-2.5-1.12-2.5-2.5s1.1-2.5 2.5-2.5c1.37 0 2.5 1.12 2.5 2.5zm9.96 0c0 1.38-1.12 2.5-2.5 2.5s-2.5-1.12-2.5-2.5 1.12-2.5 2.5-2.5 2.5 1.12 2.5 2.5zm9.96 0c0 1.38-1.12 2.5-2.5 2.5s-2.5-1.12-2.5-2.5 1.12-2.5 2.5-2.5 2.5 1.12 2.5 2.5zm9.97 0c0 1.38-1.13 2.5-2.5 2.5-1.4 0-2.5-1.12-2.5-2.5s1.1-2.5 2.5-2.5c1.37 0 2.5 1.12 2.5 2.5zm9.95 0c0 1.38-1.12 2.5-2.5 2.5s-2.5-1.12-2.5-2.5 1.12-2.5 2.5-2.5 2.5 1.12 2.5 2.5zm9.97 0c0 1.38-1.12 2.5-2.5 2.5s-2.5-1.12-2.5-2.5 1.12-2.5 2.5-2.5 2.5 1.12 2.5 2.5zm9.96 0c0 1.38-1.12 2.5-2.5 2.5s-2.5-1.12-2.5-2.5 1.12-2.5 2.5-2.5 2.5 1.12 2.5 2.5zm9.97 0c0 1.38-1.12 2.5-2.5 2.5-1.4 0-2.5-1.12-2.5-2.5s1.1-2.5 2.5-2.5c1.38 0 2.5 1.12 2.5 2.5zm9.96 0c0 1.38-1.1 2.5-2.5 2.5-1.37 0-2.5-1.12-2.5-2.5s1.13-2.5 2.5-2.5c1.4 0 2.5 1.12 2.5 2.5zm9.98 0c0 1.38-1.12 2.5-2.5 2.5s-2.5-1.12-2.5-2.5 1.12-2.5 2.5-2.5 2.5 1.12 2.5 2.5zm9.96 0c0 1.38-1.12 2.5-2.5 2.5s-2.5-1.12-2.5-2.5 1.12-2.5 2.5-2.5 2.5 1.12 2.5 2.5zm9.97 0c0 1.38-1.1 2.5-2.5 2.5-1.37 0-2.5-1.12-2.5-2.5s1.13-2.5 2.5-2.5c1.4 0 2.5 1.12 2.5 2.5zm9.97 0c0 1.38-1.12 2.5-2.5 2.5s-2.5-1.12-2.5-2.5 1.12-2.5 2.5-2.5 2.5 1.12 2.5 2.5zm9.97 0c0 1.38-1.12 2.5-2.5 2.5s-2.5-1.12-2.5-2.5 1.12-2.5 2.5-2.5 2.5 1.12 2.5 2.5zm9.96 0c0 1.38-1.12 2.5-2.5 2.5s-2.5-1.12-2.5-2.5 1.12-2.5 2.5-2.5 2.5 1.12 2.5 2.5zm9.97 0c0 1.38-1.12 2.5-2.5 2.5s-2.5-1.12-2.5-2.5 1.12-2.5 2.5-2.5 2.5 1.12 2.5 2.5zm9.96 0c0 1.38-1.12 2.5-2.5 2.5s-2.5-1.12-2.5-2.5 1.12-2.5 2.5-2.5 2.5 1.12 2.5 2.5zm9.97 0c0 1.38-1.12 2.5-2.5 2.5s-2.5-1.12-2.5-2.5 1.12-2.5 2.5-2.5 2.5 1.12 2.5 2.5zm9.96 0c0 1.38-1.12 2.5-2.5 2.5s-2.5-1.12-2.5-2.5 1.12-2.5 2.5-2.5 2.5 1.12 2.5 2.5zm9.97 0c0 1.38-1.12 2.5-2.5 2.5s-2.5-1.12-2.5-2.5 1.12-2.5 2.5-2.5 2.5 1.12 2.5 2.5zm9.96 0c0 1.38-1.13 2.5-2.5 2.5-1.4 0-2.5-1.12-2.5-2.5s1.1-2.5 2.5-2.5c1.37 0 2.5 1.12 2.5 2.5zm9.96 0c0 1.38-1.12 2.5-2.5 2.5s-2.5-1.12-2.5-2.5 1.12-2.5 2.5-2.5 2.5 1.12 2.5 2.5zm9.96 0c0 1.38-1.12 2.5-2.5 2.5s-2.5-1.12-2.5-2.5 1.12-2.5 2.5-2.5 2.5 1.12 2.5 2.5zm9.97 0c0 1.38-1.13 2.5-2.5 2.5-1.4 0-2.5-1.12-2.5-2.5s1.1-2.5 2.5-2.5c1.37 0 2.5 1.12 2.5 2.5zm9.95 0c0 1.38-1.12 2.5-2.5 2.5s-2.5-1.12-2.5-2.5 1.12-2.5 2.5-2.5 2.5 1.12 2.5 2.5zm9.97 0c0 1.38-1.12 2.5-2.5 2.5s-2.5-1.12-2.5-2.5 1.12-2.5 2.5-2.5 2.5 1.12 2.5 2.5zm9.96 0c0 1.38-1.12 2.5-2.5 2.5s-2.5-1.12-2.5-2.5 1.12-2.5 2.5-2.5 2.5 1.12 2.5 2.5zm9.97 0c0 1.38-1.12 2.5-2.5 2.5s-2.5-1.12-2.5-2.5 1.12-2.5 2.5-2.5 2.5 1.12 2.5 2.5zm9.96 0c0 1.38-1.1 2.5-2.5 2.5-1.37 0-2.5-1.12-2.5-2.5s1.13-2.5 2.5-2.5c1.4 0 2.5 1.12 2.5 2.5zm9.98 0c0 1.38-1.12 2.5-2.5 2.5s-2.5-1.12-2.5-2.5 1.12-2.5 2.5-2.5 2.5 1.12 2.5 2.5zm9.96 0c0 1.38-1.12 2.5-2.5 2.5s-2.5-1.12-2.5-2.5 1.12-2.5 2.5-2.5 2.5 1.12 2.5 2.5zm9.97 0c0 1.38-1.1 2.5-2.5 2.5-1.37 0-2.5-1.12-2.5-2.5s1.13-2.5 2.5-2.5c1.4 0 2.5 1.12 2.5 2.5zm9.97 0c0 1.38-1.12 2.5-2.5 2.5s-2.5-1.12-2.5-2.5 1.12-2.5 2.5-2.5 2.5 1.12 2.5 2.5zm9.97 0c0 1.38-1.12 2.5-2.5 2.5s-2.5-1.12-2.5-2.5 1.12-2.5 2.5-2.5 2.5 1.12 2.5 2.5zm9.96 0c0 1.38-1.12 2.5-2.5 2.5s-2.5-1.12-2.5-2.5 1.12-2.5 2.5-2.5 2.5 1.12 2.5 2.5zm9.97 0c0 1.38-1.12 2.5-2.5 2.5s-2.5-1.12-2.5-2.5 1.12-2.5 2.5-2.5 2.5 1.12 2.5 2.5zm9.96 0c0 1.38-1.12 2.5-2.5 2.5s-2.5-1.12-2.5-2.5 1.12-2.5 2.5-2.5 2.5 1.12 2.5 2.5zm9.97 0c0 1.38-1.12 2.5-2.5 2.5s-2.5-1.12-2.5-2.5 1.12-2.5 2.5-2.5 2.5 1.12 2.5 2.5zm9.96 0c0 1.38-1.12 2.5-2.5 2.5s-2.5-1.12-2.5-2.5 1.12-2.5 2.5-2.5 2.5 1.12 2.5 2.5zm9.97 0c0 1.38-1.12 2.5-2.5 2.5s-2.5-1.12-2.5-2.5 1.12-2.5 2.5-2.5 2.5 1.12 2.5 2.5zm9.96 0c0 1.38-1.13 2.5-2.5 2.5-1.4 0-2.5-1.12-2.5-2.5s1.1-2.5 2.5-2.5c1.37 0 2.5 1.12 2.5 2.5zm9.96 0c0 1.38-1.12 2.5-2.5 2.5s-2.5-1.12-2.5-2.5 1.12-2.5 2.5-2.5 2.5 1.12 2.5 2.5zm9.96 0c0 1.38-1.12 2.5-2.5 2.5s-2.5-1.12-2.5-2.5 1.12-2.5 2.5-2.5 2.5 1.12 2.5 2.5zm9.97 0c0 1.38-1.13 2.5-2.5 2.5-1.4 0-2.5-1.12-2.5-2.5s1.1-2.5 2.5-2.5c1.37 0 2.5 1.12 2.5 2.5zm9.95 0c0 1.38-1.12 2.5-2.5 2.5s-2.5-1.12-2.5-2.5 1.12-2.5 2.5-2.5 2.5 1.12 2.5 2.5zm9.97 0c0 1.38-1.12 2.5-2.5 2.5s-2.5-1.12-2.5-2.5 1.12-2.5 2.5-2.5 2.5 1.12 2.5 2.5zm9.96 0c0 1.38-1.12 2.5-2.5 2.5s-2.5-1.12-2.5-2.5 1.12-2.5 2.5-2.5 2.5 1.12 2.5 2.5zm9.97 0c0 1.38-1.12 2.5-2.5 2.5s-2.5-1.12-2.5-2.5 1.12-2.5 2.5-2.5 2.5 1.12 2.5 2.5zm9.96 0c0 1.38-1.1 2.5-2.5 2.5-1.37 0-2.5-1.12-2.5-2.5s1.13-2.5 2.5-2.5c1.4 0 2.5 1.12 2.5 2.5zm9.98 0c0 1.38-1.12 2.5-2.5 2.5s-2.5-1.12-2.5-2.5 1.12-2.5 2.5-2.5 2.5 1.12 2.5 2.5zm9.96 0c0 1.38-1.12 2.5-2.5 2.5s-2.5-1.12-2.5-2.5 1.12-2.5 2.5-2.5 2.5 1.12 2.5 2.5zm9.97 0c0 1.38-1.1 2.5-2.5 2.5-1.37 0-2.5-1.12-2.5-2.5s1.13-2.5 2.5-2.5c1.4 0 2.5 1.12 2.5 2.5zm9.97 0c0 1.38-1.12 2.5-2.5 2.5s-2.5-1.12-2.5-2.5 1.12-2.5 2.5-2.5 2.5 1.12 2.5 2.5zm9.97 0c0 1.38-1.12 2.5-2.5 2.5s-2.5-1.12-2.5-2.5 1.12-2.5 2.5-2.5 2.5 1.12 2.5 2.5zm9.96 0c0 1.38-1.12 2.5-2.5 2.5s-2.5-1.12-2.5-2.5 1.12-2.5 2.5-2.5 2.5 1.12 2.5 2.5zm9.97 0c0 1.38-1.12 2.5-2.5 2.5s-2.5-1.12-2.5-2.5 1.12-2.5 2.5-2.5 2.5 1.12 2.5 2.5zm9.96 0c0 1.38-1.12 2.5-2.5 2.5s-2.5-1.12-2.5-2.5 1.12-2.5 2.5-2.5 2.5 1.12 2.5 2.5zm9.97 0c0 1.38-1.12 2.5-2.5 2.5s-2.5-1.12-2.5-2.5 1.12-2.5 2.5-2.5 2.5 1.12 2.5 2.5zm9.96 0c0 1.38-1.12 2.5-2.5 2.5s-2.5-1.12-2.5-2.5 1.12-2.5 2.5-2.5 2.5 1.12 2.5 2.5zm9.97 0c0 1.38-1.12 2.5-2.5 2.5s-2.5-1.12-2.5-2.5 1.12-2.5 2.5-2.5 2.5 1.12 2.5 2.5zm9.96 0c0 1.38-1.13 2.5-2.5 2.5-1.4 0-2.5-1.12-2.5-2.5s1.1-2.5 2.5-2.5c1.37 0 2.5 1.12 2.5 2.5zm9.96 0c0 1.38-1.12 2.5-2.5 2.5s-2.5-1.12-2.5-2.5 1.12-2.5 2.5-2.5 2.5 1.12 2.5 2.5zm9.96 0c0 1.38-1.12 2.5-2.5 2.5s-2.5-1.12-2.5-2.5 1.12-2.5 2.5-2.5 2.5 1.12 2.5 2.5zm9.97 0c0 1.38-1.13 2.5-2.5 2.5-1.4 0-2.5-1.12-2.5-2.5s1.1-2.5 2.5-2.5c1.37 0 2.5 1.12 2.5 2.5zm9.95 0c0 1.38-1.12 2.5-2.5 2.5s-2.5-1.12-2.5-2.5 1.12-2.5 2.5-2.5 2.5 1.12 2.5 2.5zm9.97 0c0 1.38-1.12 2.5-2.5 2.5s-2.5-1.12-2.5-2.5 1.12-2.5 2.5-2.5 2.5 1.12 2.5 2.5zm9.96 0c0 1.38-1.12 2.5-2.5 2.5s-2.5-1.12-2.5-2.5 1.12-2.5 2.5-2.5 2.5 1.12 2.5 2.5zm9.97 0c0 1.38-1.12 2.5-2.5 2.5s-2.5-1.12-2.5-2.5 1.12-2.5 2.5-2.5 2.5 1.12 2.5 2.5zm9.96 0c0 1.38-1.1 2.5-2.5 2.5-1.37 0-2.5-1.12-2.5-2.5s1.13-2.5 2.5-2.5c1.4 0 2.5 1.12 2.5 2.5zm9.98 0c0 1.38-1.12 2.5-2.5 2.5s-2.5-1.12-2.5-2.5 1.12-2.5 2.5-2.5 2.5 1.12 2.5 2.5zm9.96 0c0 1.38-1.12 2.5-2.5 2.5s-2.5-1.12-2.5-2.5 1.12-2.5 2.5-2.5 2.5 1.12 2.5 2.5zm9.97 0c0 1.38-1.1 2.5-2.5 2.5-1.37 0-2.5-1.12-2.5-2.5s1.13-2.5 2.5-2.5c1.4 0 2.5 1.12 2.5 2.5zm9.97 0c0 1.38-1.12 2.5-2.5 2.5s-2.5-1.12-2.5-2.5 1.12-2.5 2.5-2.5 2.5 1.12 2.5 2.5zm9.97 0c0 1.38-1.12 2.5-2.5 2.5s-2.5-1.12-2.5-2.5 1.12-2.5 2.5-2.5 2.5 1.12 2.5 2.5zm9.96 0c0 1.38-1.12 2.5-2.5 2.5s-2.5-1.12-2.5-2.5 1.12-2.5 2.5-2.5 2.5 1.12 2.5 2.5zm9.97 0c0 1.38-1.12 2.5-2.5 2.5s-2.5-1.12-2.5-2.5 1.12-2.5 2.5-2.5 2.5 1.12 2.5 2.5zm9.96 0c0 1.38-1.12 2.5-2.5 2.5s-2.5-1.12-2.5-2.5 1.12-2.5 2.5-2.5 2.5 1.12 2.5 2.5zm9.97 0c0 1.38-1.12 2.5-2.5 2.5s-2.5-1.12-2.5-2.5 1.12-2.5 2.5-2.5 2.5 1.12 2.5 2.5zm9.96 0c0 1.38-1.12 2.5-2.5 2.5s-2.5-1.12-2.5-2.5 1.12-2.5 2.5-2.5 2.5 1.12 2.5 2.5zm9.97 0c0 1.38-1.12 2.5-2.5 2.5s-2.5-1.12-2.5-2.5 1.12-2.5 2.5-2.5 2.5 1.12 2.5 2.5zm9.96 0c0 1.38-1.13 2.5-2.5 2.5-1.4 0-2.5-1.12-2.5-2.5s1.1-2.5 2.5-2.5c1.37 0 2.5 1.12 2.5 2.5zm9.96 0c0 1.38-1.12 2.5-2.5 2.5s-2.5-1.12-2.5-2.5 1.12-2.5 2.5-2.5 2.5 1.12 2.5 2.5zm9.96 0c0 1.38-1.12 2.5-2.5 2.5s-2.5-1.12-2.5-2.5 1.12-2.5 2.5-2.5 2.5 1.12 2.5 2.5zm9.97 0c0 1.38-1.13 2.5-2.5 2.5-1.4 0-2.5-1.12-2.5-2.5s1.1-2.5 2.5-2.5c1.37 0 2.5 1.12 2.5 2.5zm9.95 0c0 1.38-1.12 2.5-2.5 2.5s-2.5-1.12-2.5-2.5 1.12-2.5 2.5-2.5 2.5 1.12 2.5 2.5zm9.97 0c0 1.38-1.12 2.5-2.5 2.5s-2.5-1.12-2.5-2.5 1.12-2.5 2.5-2.5 2.5 1.12 2.5 2.5zm9.96 0c0 1.38-1.12 2.5-2.5 2.5s-2.5-1.12-2.5-2.5 1.12-2.5 2.5-2.5 2.5 1.12 2.5 2.5zm9.97 0c0 1.38-1.12 2.5-2.5 2.5s-2.5-1.12-2.5-2.5 1.12-2.5 2.5-2.5 2.5 1.12 2.5 2.5zm9.96 0c0 1.38-1.1 2.5-2.5 2.5-1.37 0-2.5-1.12-2.5-2.5s1.13-2.5 2.5-2.5c1.4 0 2.5 1.12 2.5 2.5zm9.98 0c0 1.38-1.12 2.5-2.5 2.5s-2.5-1.12-2.5-2.5 1.12-2.5 2.5-2.5 2.5 1.12 2.5 2.5zm9.96 0c0 1.38-1.12 2.5-2.5 2.5s-2.5-1.12-2.5-2.5 1.12-2.5 2.5-2.5 2.5 1.12 2.5 2.5zm9.97 0c0 1.38-1.1 2.5-2.5 2.5-1.37 0-2.5-1.12-2.5-2.5s1.13-2.5 2.5-2.5c1.4 0 2.5 1.12 2.5 2.5zm9.97 0c0 1.38-1.1 2.5-2.5 2.5-1.38 0-2.5-1.12-2.5-2.5s1.12-2.5 2.5-2.5c1.4 0 2.5 1.12 2.5 2.5zm9.97 0c0 1.38-1.12 2.5-2.5 2.5s-2.5-1.12-2.5-2.5 1.12-2.5 2.5-2.5 2.5 1.12 2.5 2.5zm9.96 0c0 1.38-1.12 2.5-2.5 2.5s-2.5-1.12-2.5-2.5 1.12-2.5 2.5-2.5 2.5 1.12 2.5 2.5zm9.97 0c0 1.38-1.12 2.5-2.5 2.5s-2.5-1.12-2.5-2.5 1.12-2.5 2.5-2.5 2.5 1.12 2.5 2.5zm9.96 0c0 1.38-1.12 2.5-2.5 2.5s-2.5-1.12-2.5-2.5 1.12-2.5 2.5-2.5 2.5 1.12 2.5 2.5zm9.97 0c0 1.38-1.12 2.5-2.5 2.5s-2.5-1.12-2.5-2.5 1.12-2.5 2.5-2.5 2.5 1.12 2.5 2.5zm9.96 0c0 1.38-1.12 2.5-2.5 2.5s-2.5-1.12-2.5-2.5 1.12-2.5 2.5-2.5 2.5 1.12 2.5 2.5zm9.97 0c0 1.38-1.12 2.5-2.5 2.5s-2.5-1.12-2.5-2.5 1.12-2.5 2.5-2.5 2.5 1.12 2.5 2.5zm9.96 0c0 1.38-1.13 2.5-2.5 2.5-1.4 0-2.5-1.12-2.5-2.5s1.1-2.5 2.5-2.5c1.38 0 2.5 1.12 2.5 2.5zm9.96 0c0 1.38-1.12 2.5-2.5 2.5s-2.5-1.12-2.5-2.5 1.12-2.5 2.5-2.5 2.5 1.12 2.5 2.5zm9.96 0c0 1.38-1.12 2.5-2.5 2.5s-2.5-1.12-2.5-2.5 1.12-2.5 2.5-2.5 2.5 1.12 2.5 2.5zm9.97 0c0 1.38-1.13 2.5-2.5 2.5-1.4 0-2.5-1.12-2.5-2.5s1.1-2.5 2.5-2.5c1.37 0 2.5 1.12 2.5 2.5zm9.95 0c0 1.38-1.12 2.5-2.5 2.5s-2.5-1.12-2.5-2.5 1.12-2.5 2.5-2.5 2.5 1.12 2.5 2.5zm9.97 0c0 1.38-1.12 2.5-2.5 2.5s-2.5-1.12-2.5-2.5 1.12-2.5 2.5-2.5 2.5 1.12 2.5 2.5zm9.96 0c0 1.38-1.12 2.5-2.5 2.5s-2.5-1.12-2.5-2.5 1.12-2.5 2.5-2.5 2.5 1.12 2.5 2.5zm9.97 0c0 1.38-1.12 2.5-2.5 2.5s-2.5-1.12-2.5-2.5 1.12-2.5 2.5-2.5 2.5 1.12 2.5 2.5zm9.97 0c0 1.38-1.13 2.5-2.5 2.5-1.4 0-2.5-1.12-2.5-2.5s1.1-2.5 2.5-2.5c1.38 0 2.5 1.12 2.5 2.5zm9.96 0c0 1.38-1.12 2.5-2.5 2.5s-2.5-1.12-2.5-2.5 1.12-2.5 2.5-2.5 2.5 1.12 2.5 2.5zm9.96 0c0 1.38-1.12 2.5-2.5 2.5s-2.5-1.12-2.5-2.5 1.12-2.5 2.5-2.5 2.5 1.12 2.5 2.5zm9.97 0c0 1.38-1.1 2.5-2.5 2.5-1.37 0-2.5-1.12-2.5-2.5s1.13-2.5 2.5-2.5c1.4 0 2.5 1.12 2.5 2.5zm9.97 0c0 1.38-1.1 2.5-2.5 2.5-1.38 0-2.5-1.12-2.5-2.5s1.12-2.5 2.5-2.5c1.4 0 2.5 1.12 2.5 2.5zm9.97 0c0 1.38-1.12 2.5-2.5 2.5s-2.5-1.12-2.5-2.5 1.12-2.5 2.5-2.5 2.5 1.12 2.5 2.5zm9.96 0c0 1.38-1.1 2.5-2.5 2.5-1.38 0-2.5-1.12-2.5-2.5s1.12-2.5 2.5-2.5c1.4 0 2.5 1.12 2.5 2.5zm9.97 0c0 1.38-1.12 2.5-2.5 2.5s-2.5-1.12-2.5-2.5 1.12-2.5 2.5-2.5 2.5 1.12 2.5 2.5zm9.97 0c0 1.38-1.12 2.5-2.5 2.5-1.4 0-2.5-1.12-2.5-2.5s1.1-2.5 2.5-2.5c1.38 0 2.5 1.12 2.5 2.5zm9.96 0c0 1.38-1.12 2.5-2.5 2.5s-2.5-1.12-2.5-2.5 1.12-2.5 2.5-2.5 2.5 1.12 2.5 2.5z" fill="#979ea8"/><path d="M192.5-197.5h1415" fill="none"/><path d="M195-197.5c0 1.38-1.12 2.5-2.5 2.5s-2.5-1.12-2.5-2.5 1.12-2.5 2.5-2.5 2.5 1.12 2.5 2.5zm9.97 0c0 1.38-1.12 2.5-2.5 2.5-1.4 0-2.5-1.12-2.5-2.5s1.1-2.5 2.5-2.5c1.38 0 2.5 1.12 2.5 2.5zm9.96 0c0 1.38-1.12 2.5-2.5 2.5s-2.5-1.12-2.5-2.5 1.12-2.5 2.5-2.5 2.5 1.12 2.5 2.5zm9.96 0c0 1.38-1.13 2.5-2.5 2.5-1.4 0-2.5-1.12-2.5-2.5s1.1-2.5 2.5-2.5c1.38 0 2.5 1.12 2.5 2.5zm9.96 0c0 1.38-1.12 2.5-2.5 2.5s-2.5-1.12-2.5-2.5 1.12-2.5 2.5-2.5 2.5 1.12 2.5 2.5zm9.96 0c0 1.38-1.1 2.5-2.5 2.5-1.38 0-2.5-1.12-2.5-2.5s1.12-2.5 2.5-2.5c1.4 0 2.5 1.12 2.5 2.5zm9.97 0c0 1.38-1.13 2.5-2.5 2.5-1.4 0-2.5-1.12-2.5-2.5s1.1-2.5 2.5-2.5c1.37 0 2.5 1.12 2.5 2.5zm9.95 0c0 1.38-1.12 2.5-2.5 2.5s-2.5-1.12-2.5-2.5 1.12-2.5 2.5-2.5 2.5 1.12 2.5 2.5zm9.97 0c0 1.38-1.12 2.5-2.5 2.5s-2.5-1.12-2.5-2.5 1.12-2.5 2.5-2.5 2.5 1.12 2.5 2.5zm9.96 0c0 1.38-1.12 2.5-2.5 2.5s-2.5-1.12-2.5-2.5 1.12-2.5 2.5-2.5 2.5 1.12 2.5 2.5zm9.97 0c0 1.38-1.12 2.5-2.5 2.5s-2.5-1.12-2.5-2.5 1.12-2.5 2.5-2.5 2.5 1.12 2.5 2.5zm9.96 0c0 1.38-1.1 2.5-2.5 2.5-1.37 0-2.5-1.12-2.5-2.5s1.13-2.5 2.5-2.5c1.4 0 2.5 1.12 2.5 2.5zm9.98 0c0 1.38-1.12 2.5-2.5 2.5s-2.5-1.12-2.5-2.5 1.12-2.5 2.5-2.5 2.5 1.12 2.5 2.5zm9.96 0c0 1.38-1.12 2.5-2.5 2.5s-2.5-1.12-2.5-2.5 1.12-2.5 2.5-2.5 2.5 1.12 2.5 2.5zm9.97 0c0 1.38-1.1 2.5-2.5 2.5-1.37 0-2.5-1.12-2.5-2.5s1.13-2.5 2.5-2.5c1.4 0 2.5 1.12 2.5 2.5zm9.97 0c0 1.38-1.12 2.5-2.5 2.5s-2.5-1.12-2.5-2.5 1.12-2.5 2.5-2.5 2.5 1.12 2.5 2.5zm9.97 0c0 1.38-1.12 2.5-2.5 2.5s-2.5-1.12-2.5-2.5 1.12-2.5 2.5-2.5 2.5 1.12 2.5 2.5zm9.96 0c0 1.38-1.12 2.5-2.5 2.5s-2.5-1.12-2.5-2.5 1.12-2.5 2.5-2.5 2.5 1.12 2.5 2.5zm9.97 0c0 1.38-1.12 2.5-2.5 2.5s-2.5-1.12-2.5-2.5 1.12-2.5 2.5-2.5 2.5 1.12 2.5 2.5zm9.96 0c0 1.38-1.12 2.5-2.5 2.5s-2.5-1.12-2.5-2.5 1.12-2.5 2.5-2.5 2.5 1.12 2.5 2.5zm9.97 0c0 1.38-1.12 2.5-2.5 2.5s-2.5-1.12-2.5-2.5 1.12-2.5 2.5-2.5 2.5 1.12 2.5 2.5zm9.96 0c0 1.38-1.12 2.5-2.5 2.5s-2.5-1.12-2.5-2.5 1.12-2.5 2.5-2.5 2.5 1.12 2.5 2.5zm9.97 0c0 1.38-1.12 2.5-2.5 2.5s-2.5-1.12-2.5-2.5 1.12-2.5 2.5-2.5 2.5 1.12 2.5 2.5zm9.96 0c0 1.38-1.13 2.5-2.5 2.5-1.4 0-2.5-1.12-2.5-2.5s1.1-2.5 2.5-2.5c1.37 0 2.5 1.12 2.5 2.5zm9.95 0c0 1.38-1.1 2.5-2.5 2.5-1.38 0-2.5-1.12-2.5-2.5s1.12-2.5 2.5-2.5c1.4 0 2.5 1.12 2.5 2.5zm9.97 0c0 1.38-1.12 2.5-2.5 2.5s-2.5-1.12-2.5-2.5 1.12-2.5 2.5-2.5 2.5 1.12 2.5 2.5zm9.96 0c0 1.38-1.12 2.5-2.5 2.5s-2.5-1.12-2.5-2.5 1.12-2.5 2.5-2.5 2.5 1.12 2.5 2.5zm9.97 0c0 1.38-1.12 2.5-2.5 2.5s-2.5-1.12-2.5-2.5 1.12-2.5 2.5-2.5 2.5 1.12 2.5 2.5zm9.96 0c0 1.38-1.1 2.5-2.5 2.5-1.37 0-2.5-1.12-2.5-2.5s1.13-2.5 2.5-2.5c1.4 0 2.5 1.12 2.5 2.5zm9.98 0c0 1.38-1.12 2.5-2.5 2.5s-2.5-1.12-2.5-2.5 1.12-2.5 2.5-2.5 2.5 1.12 2.5 2.5zm9.96 0c0 1.38-1.12 2.5-2.5 2.5s-2.5-1.12-2.5-2.5 1.12-2.5 2.5-2.5 2.5 1.12 2.5 2.5zm9.97 0c0 1.38-1.1 2.5-2.5 2.5-1.37 0-2.5-1.12-2.5-2.5s1.13-2.5 2.5-2.5c1.4 0 2.5 1.12 2.5 2.5zm9.97 0c0 1.38-1.12 2.5-2.5 2.5s-2.5-1.12-2.5-2.5 1.12-2.5 2.5-2.5 2.5 1.12 2.5 2.5zm9.97 0c0 1.38-1.12 2.5-2.5 2.5s-2.5-1.12-2.5-2.5 1.12-2.5 2.5-2.5 2.5 1.12 2.5 2.5zm9.96 0c0 1.38-1.12 2.5-2.5 2.5s-2.5-1.12-2.5-2.5 1.12-2.5 2.5-2.5 2.5 1.12 2.5 2.5zm9.97 0c0 1.38-1.12 2.5-2.5 2.5s-2.5-1.12-2.5-2.5 1.12-2.5 2.5-2.5 2.5 1.12 2.5 2.5zm9.96 0c0 1.38-1.12 2.5-2.5 2.5s-2.5-1.12-2.5-2.5 1.12-2.5 2.5-2.5 2.5 1.12 2.5 2.5zm9.97 0c0 1.38-1.12 2.5-2.5 2.5s-2.5-1.12-2.5-2.5 1.12-2.5 2.5-2.5 2.5 1.12 2.5 2.5zm9.96 0c0 1.38-1.12 2.5-2.5 2.5s-2.5-1.12-2.5-2.5 1.12-2.5 2.5-2.5 2.5 1.12 2.5 2.5zm9.97 0c0 1.38-1.12 2.5-2.5 2.5s-2.5-1.12-2.5-2.5 1.12-2.5 2.5-2.5 2.5 1.12 2.5 2.5zm9.96 0c0 1.38-1.13 2.5-2.5 2.5-1.4 0-2.5-1.12-2.5-2.5s1.1-2.5 2.5-2.5c1.37 0 2.5 1.12 2.5 2.5zm9.96 0c0 1.38-1.12 2.5-2.5 2.5s-2.5-1.12-2.5-2.5 1.12-2.5 2.5-2.5 2.5 1.12 2.5 2.5zm9.96 0c0 1.38-1.12 2.5-2.5 2.5s-2.5-1.12-2.5-2.5 1.12-2.5 2.5-2.5 2.5 1.12 2.5 2.5zm9.97 0c0 1.38-1.13 2.5-2.5 2.5-1.4 0-2.5-1.12-2.5-2.5s1.1-2.5 2.5-2.5c1.37 0 2.5 1.12 2.5 2.5zm9.95 0c0 1.38-1.12 2.5-2.5 2.5s-2.5-1.12-2.5-2.5 1.12-2.5 2.5-2.5 2.5 1.12 2.5 2.5zm9.96 0c0 1.38-1.1 2.5-2.5 2.5-1.37 0-2.5-1.12-2.5-2.5s1.13-2.5 2.5-2.5c1.4 0 2.5 1.12 2.5 2.5zm9.98 0c0 1.38-1.12 2.5-2.5 2.5s-2.5-1.12-2.5-2.5 1.12-2.5 2.5-2.5 2.5 1.12 2.5 2.5zm9.97 0c0 1.38-1.12 2.5-2.5 2.5-1.4 0-2.5-1.12-2.5-2.5s1.1-2.5 2.5-2.5c1.38 0 2.5 1.12 2.5 2.5zm9.96 0c0 1.38-1.1 2.5-2.5 2.5-1.37 0-2.5-1.12-2.5-2.5s1.13-2.5 2.5-2.5c1.4 0 2.5 1.12 2.5 2.5zm9.98 0c0 1.38-1.13 2.5-2.5 2.5-1.4 0-2.5-1.12-2.5-2.5s1.1-2.5 2.5-2.5c1.38 0 2.5 1.12 2.5 2.5zm9.96 0c0 1.38-1.12 2.5-2.5 2.5s-2.5-1.12-2.5-2.5 1.12-2.5 2.5-2.5 2.5 1.12 2.5 2.5zm9.96 0c0 1.38-1.12 2.5-2.5 2.5s-2.5-1.12-2.5-2.5 1.12-2.5 2.5-2.5 2.5 1.12 2.5 2.5zm9.97 0c0 1.38-1.12 2.5-2.5 2.5s-2.5-1.12-2.5-2.5 1.12-2.5 2.5-2.5 2.5 1.12 2.5 2.5zm9.96 0c0 1.38-1.12 2.5-2.5 2.5s-2.5-1.12-2.5-2.5 1.12-2.5 2.5-2.5 2.5 1.12 2.5 2.5zm9.97 0c0 1.38-1.12 2.5-2.5 2.5s-2.5-1.12-2.5-2.5 1.12-2.5 2.5-2.5 2.5 1.12 2.5 2.5zm9.96 0c0 1.38-1.12 2.5-2.5 2.5s-2.5-1.12-2.5-2.5 1.12-2.5 2.5-2.5 2.5 1.12 2.5 2.5zm9.97 0c0 1.38-1.12 2.5-2.5 2.5s-2.5-1.12-2.5-2.5 1.12-2.5 2.5-2.5 2.5 1.12 2.5 2.5zm9.96 0c0 1.38-1.13 2.5-2.5 2.5-1.4 0-2.5-1.12-2.5-2.5s1.1-2.5 2.5-2.5c1.37 0 2.5 1.12 2.5 2.5zm9.96 0c0 1.38-1.12 2.5-2.5 2.5s-2.5-1.12-2.5-2.5 1.12-2.5 2.5-2.5 2.5 1.12 2.5 2.5zm9.96 0c0 1.38-1.12 2.5-2.5 2.5s-2.5-1.12-2.5-2.5 1.12-2.5 2.5-2.5 2.5 1.12 2.5 2.5zm9.97 0c0 1.38-1.13 2.5-2.5 2.5-1.4 0-2.5-1.12-2.5-2.5s1.1-2.5 2.5-2.5c1.37 0 2.5 1.12 2.5 2.5zm9.95 0c0 1.38-1.12 2.5-2.5 2.5s-2.5-1.12-2.5-2.5 1.12-2.5 2.5-2.5 2.5 1.12 2.5 2.5zm9.97 0c0 1.38-1.12 2.5-2.5 2.5s-2.5-1.12-2.5-2.5 1.12-2.5 2.5-2.5 2.5 1.12 2.5 2.5zm9.96 0c0 1.38-1.12 2.5-2.5 2.5s-2.5-1.12-2.5-2.5 1.12-2.5 2.5-2.5 2.5 1.12 2.5 2.5zm9.97 0c0 1.38-1.12 2.5-2.5 2.5s-2.5-1.12-2.5-2.5 1.12-2.5 2.5-2.5 2.5 1.12 2.5 2.5zm9.96 0c0 1.38-1.1 2.5-2.5 2.5-1.37 0-2.5-1.12-2.5-2.5s1.13-2.5 2.5-2.5c1.4 0 2.5 1.12 2.5 2.5zm9.98 0c0 1.38-1.12 2.5-2.5 2.5s-2.5-1.12-2.5-2.5 1.12-2.5 2.5-2.5 2.5 1.12 2.5 2.5zm9.96 0c0 1.38-1.12 2.5-2.5 2.5s-2.5-1.12-2.5-2.5 1.12-2.5 2.5-2.5 2.5 1.12 2.5 2.5zm9.97 0c0 1.38-1.1 2.5-2.5 2.5-1.38 0-2.5-1.12-2.5-2.5s1.13-2.5 2.5-2.5c1.4 0 2.5 1.12 2.5 2.5zm9.97 0c0 1.38-1.12 2.5-2.5 2.5s-2.5-1.12-2.5-2.5 1.12-2.5 2.5-2.5 2.5 1.12 2.5 2.5zm9.96 0c0 1.38-1.1 2.5-2.5 2.5-1.38 0-2.5-1.12-2.5-2.5s1.12-2.5 2.5-2.5c1.4 0 2.5 1.12 2.5 2.5zm9.97 0c0 1.38-1.12 2.5-2.5 2.5s-2.5-1.12-2.5-2.5 1.12-2.5 2.5-2.5 2.5 1.12 2.5 2.5zm9.97 0c0 1.38-1.12 2.5-2.5 2.5-1.4 0-2.5-1.12-2.5-2.5s1.1-2.5 2.5-2.5c1.38 0 2.5 1.12 2.5 2.5zm9.96 0c0 1.38-1.12 2.5-2.5 2.5s-2.5-1.12-2.5-2.5 1.12-2.5 2.5-2.5 2.5 1.12 2.5 2.5zm9.96 0c0 1.38-1.13 2.5-2.5 2.5-1.4 0-2.5-1.12-2.5-2.5s1.1-2.5 2.5-2.5c1.38 0 2.5 1.12 2.5 2.5zm9.96 0c0 1.38-1.12 2.5-2.5 2.5s-2.5-1.12-2.5-2.5 1.12-2.5 2.5-2.5 2.5 1.12 2.5 2.5zm9.96 0c0 1.38-1.12 2.5-2.5 2.5s-2.5-1.12-2.5-2.5 1.12-2.5 2.5-2.5 2.5 1.12 2.5 2.5zm9.97 0c0 1.38-1.13 2.5-2.5 2.5-1.4 0-2.5-1.12-2.5-2.5s1.1-2.5 2.5-2.5c1.37 0 2.5 1.12 2.5 2.5zm9.95 0c0 1.38-1.12 2.5-2.5 2.5s-2.5-1.12-2.5-2.5 1.12-2.5 2.5-2.5 2.5 1.12 2.5 2.5zm9.97 0c0 1.38-1.12 2.5-2.5 2.5s-2.5-1.12-2.5-2.5 1.12-2.5 2.5-2.5 2.5 1.12 2.5 2.5zm9.96 0c0 1.38-1.12 2.5-2.5 2.5s-2.5-1.12-2.5-2.5 1.12-2.5 2.5-2.5 2.5 1.12 2.5 2.5zm9.97 0c0 1.38-1.12 2.5-2.5 2.5s-2.5-1.12-2.5-2.5 1.12-2.5 2.5-2.5 2.5 1.12 2.5 2.5zm9.96 0c0 1.38-1.1 2.5-2.5 2.5-1.37 0-2.5-1.12-2.5-2.5s1.13-2.5 2.5-2.5c1.4 0 2.5 1.12 2.5 2.5zm9.98 0c0 1.38-1.12 2.5-2.5 2.5s-2.5-1.12-2.5-2.5 1.12-2.5 2.5-2.5 2.5 1.12 2.5 2.5zm9.96 0c0 1.38-1.12 2.5-2.5 2.5s-2.5-1.12-2.5-2.5 1.12-2.5 2.5-2.5 2.5 1.12 2.5 2.5zm9.97 0c0 1.38-1.1 2.5-2.5 2.5-1.37 0-2.5-1.12-2.5-2.5s1.13-2.5 2.5-2.5c1.4 0 2.5 1.12 2.5 2.5zm9.97 0c0 1.38-1.12 2.5-2.5 2.5s-2.5-1.12-2.5-2.5 1.12-2.5 2.5-2.5 2.5 1.12 2.5 2.5zm9.97 0c0 1.38-1.12 2.5-2.5 2.5s-2.5-1.12-2.5-2.5 1.12-2.5 2.5-2.5 2.5 1.12 2.5 2.5zm9.96 0c0 1.38-1.12 2.5-2.5 2.5s-2.5-1.12-2.5-2.5 1.12-2.5 2.5-2.5 2.5 1.12 2.5 2.5zm9.97 0c0 1.38-1.12 2.5-2.5 2.5s-2.5-1.12-2.5-2.5 1.12-2.5 2.5-2.5 2.5 1.12 2.5 2.5zm9.96 0c0 1.38-1.12 2.5-2.5 2.5s-2.5-1.12-2.5-2.5 1.12-2.5 2.5-2.5 2.5 1.12 2.5 2.5zm9.97 0c0 1.38-1.12 2.5-2.5 2.5s-2.5-1.12-2.5-2.5 1.12-2.5 2.5-2.5 2.5 1.12 2.5 2.5zm9.96 0c0 1.38-1.12 2.5-2.5 2.5s-2.5-1.12-2.5-2.5 1.12-2.5 2.5-2.5 2.5 1.12 2.5 2.5zm9.96 0c0 1.38-1.1 2.5-2.5 2.5-1.38 0-2.5-1.12-2.5-2.5s1.13-2.5 2.5-2.5c1.4 0 2.5 1.12 2.5 2.5zm9.97 0c0 1.38-1.13 2.5-2.5 2.5-1.4 0-2.5-1.12-2.5-2.5s1.1-2.5 2.5-2.5c1.37 0 2.5 1.12 2.5 2.5zm9.95 0c0 1.38-1.1 2.5-2.5 2.5-1.38 0-2.5-1.12-2.5-2.5s1.12-2.5 2.5-2.5c1.4 0 2.5 1.12 2.5 2.5zm9.97 0c0 1.38-1.12 2.5-2.5 2.5s-2.5-1.12-2.5-2.5 1.12-2.5 2.5-2.5 2.5 1.12 2.5 2.5zm9.97 0c0 1.38-1.13 2.5-2.5 2.5-1.4 0-2.5-1.12-2.5-2.5s1.1-2.5 2.5-2.5c1.37 0 2.5 1.12 2.5 2.5zm9.95 0c0 1.38-1.12 2.5-2.5 2.5s-2.5-1.12-2.5-2.5 1.12-2.5 2.5-2.5 2.5 1.12 2.5 2.5zm9.96 0c0 1.38-1.1 2.5-2.5 2.5-1.37 0-2.5-1.12-2.5-2.5s1.13-2.5 2.5-2.5c1.4 0 2.5 1.12 2.5 2.5zm9.98 0c0 1.38-1.12 2.5-2.5 2.5s-2.5-1.12-2.5-2.5 1.12-2.5 2.5-2.5 2.5 1.12 2.5 2.5zm9.96 0c0 1.38-1.12 2.5-2.5 2.5s-2.5-1.12-2.5-2.5 1.12-2.5 2.5-2.5 2.5 1.12 2.5 2.5zm9.97 0c0 1.38-1.1 2.5-2.5 2.5-1.37 0-2.5-1.12-2.5-2.5s1.13-2.5 2.5-2.5c1.4 0 2.5 1.12 2.5 2.5zm9.97 0c0 1.38-1.12 2.5-2.5 2.5s-2.5-1.12-2.5-2.5 1.12-2.5 2.5-2.5 2.5 1.12 2.5 2.5zm9.97 0c0 1.38-1.12 2.5-2.5 2.5s-2.5-1.12-2.5-2.5 1.12-2.5 2.5-2.5 2.5 1.12 2.5 2.5zm9.96 0c0 1.38-1.12 2.5-2.5 2.5s-2.5-1.12-2.5-2.5 1.12-2.5 2.5-2.5 2.5 1.12 2.5 2.5zm9.97 0c0 1.38-1.12 2.5-2.5 2.5s-2.5-1.12-2.5-2.5 1.12-2.5 2.5-2.5 2.5 1.12 2.5 2.5zm9.96 0c0 1.38-1.12 2.5-2.5 2.5s-2.5-1.12-2.5-2.5 1.12-2.5 2.5-2.5 2.5 1.12 2.5 2.5zm9.97 0c0 1.38-1.12 2.5-2.5 2.5s-2.5-1.12-2.5-2.5 1.12-2.5 2.5-2.5 2.5 1.12 2.5 2.5zm9.96 0c0 1.38-1.12 2.5-2.5 2.5s-2.5-1.12-2.5-2.5 1.12-2.5 2.5-2.5 2.5 1.12 2.5 2.5zm9.97 0c0 1.38-1.12 2.5-2.5 2.5s-2.5-1.12-2.5-2.5 1.12-2.5 2.5-2.5 2.5 1.12 2.5 2.5zm9.96 0c0 1.38-1.13 2.5-2.5 2.5-1.4 0-2.5-1.12-2.5-2.5s1.1-2.5 2.5-2.5c1.37 0 2.5 1.12 2.5 2.5zm9.96 0c0 1.38-1.12 2.5-2.5 2.5s-2.5-1.12-2.5-2.5 1.12-2.5 2.5-2.5 2.5 1.12 2.5 2.5zm9.96 0c0 1.38-1.12 2.5-2.5 2.5s-2.5-1.12-2.5-2.5 1.12-2.5 2.5-2.5 2.5 1.12 2.5 2.5zm9.97 0c0 1.38-1.13 2.5-2.5 2.5-1.4 0-2.5-1.12-2.5-2.5s1.1-2.5 2.5-2.5c1.37 0 2.5 1.12 2.5 2.5zm9.95 0c0 1.38-1.12 2.5-2.5 2.5s-2.5-1.12-2.5-2.5 1.12-2.5 2.5-2.5 2.5 1.12 2.5 2.5zm9.96 0c0 1.38-1.1 2.5-2.5 2.5-1.37 0-2.5-1.12-2.5-2.5s1.13-2.5 2.5-2.5c1.4 0 2.5 1.12 2.5 2.5zm9.98 0c0 1.38-1.12 2.5-2.5 2.5s-2.5-1.12-2.5-2.5 1.12-2.5 2.5-2.5 2.5 1.12 2.5 2.5zm9.96 0c0 1.38-1.1 2.5-2.5 2.5-1.38 0-2.5-1.12-2.5-2.5s1.12-2.5 2.5-2.5c1.4 0 2.5 1.12 2.5 2.5zm9.97 0c0 1.38-1.1 2.5-2.5 2.5-1.37 0-2.5-1.12-2.5-2.5s1.13-2.5 2.5-2.5c1.4 0 2.5 1.12 2.5 2.5zm9.98 0c0 1.38-1.13 2.5-2.5 2.5-1.4 0-2.5-1.12-2.5-2.5s1.1-2.5 2.5-2.5c1.38 0 2.5 1.12 2.5 2.5zm9.96 0c0 1.38-1.12 2.5-2.5 2.5s-2.5-1.12-2.5-2.5 1.12-2.5 2.5-2.5 2.5 1.12 2.5 2.5zm9.96 0c0 1.38-1.12 2.5-2.5 2.5s-2.5-1.12-2.5-2.5 1.12-2.5 2.5-2.5 2.5 1.12 2.5 2.5zm9.97 0c0 1.38-1.12 2.5-2.5 2.5s-2.5-1.12-2.5-2.5 1.12-2.5 2.5-2.5 2.5 1.12 2.5 2.5zm9.96 0c0 1.38-1.12 2.5-2.5 2.5s-2.5-1.12-2.5-2.5 1.12-2.5 2.5-2.5 2.5 1.12 2.5 2.5zm9.97 0c0 1.38-1.12 2.5-2.5 2.5s-2.5-1.12-2.5-2.5 1.12-2.5 2.5-2.5 2.5 1.12 2.5 2.5zm9.96 0c0 1.38-1.12 2.5-2.5 2.5s-2.5-1.12-2.5-2.5 1.12-2.5 2.5-2.5 2.5 1.12 2.5 2.5zm9.97 0c0 1.38-1.12 2.5-2.5 2.5s-2.5-1.12-2.5-2.5 1.12-2.5 2.5-2.5 2.5 1.12 2.5 2.5zm9.96 0c0 1.38-1.13 2.5-2.5 2.5-1.4 0-2.5-1.12-2.5-2.5s1.1-2.5 2.5-2.5c1.37 0 2.5 1.12 2.5 2.5zm9.96 0c0 1.38-1.12 2.5-2.5 2.5s-2.5-1.12-2.5-2.5 1.12-2.5 2.5-2.5 2.5 1.12 2.5 2.5zm9.96 0c0 1.38-1.12 2.5-2.5 2.5s-2.5-1.12-2.5-2.5 1.12-2.5 2.5-2.5 2.5 1.12 2.5 2.5zm9.97 0c0 1.38-1.13 2.5-2.5 2.5-1.4 0-2.5-1.12-2.5-2.5s1.1-2.5 2.5-2.5c1.37 0 2.5 1.12 2.5 2.5zm9.95 0c0 1.38-1.12 2.5-2.5 2.5s-2.5-1.12-2.5-2.5 1.12-2.5 2.5-2.5 2.5 1.12 2.5 2.5zm9.97 0c0 1.38-1.12 2.5-2.5 2.5s-2.5-1.12-2.5-2.5 1.12-2.5 2.5-2.5 2.5 1.12 2.5 2.5zm9.96 0c0 1.38-1.12 2.5-2.5 2.5s-2.5-1.12-2.5-2.5 1.12-2.5 2.5-2.5 2.5 1.12 2.5 2.5zm9.97 0c0 1.38-1.12 2.5-2.5 2.5s-2.5-1.12-2.5-2.5 1.12-2.5 2.5-2.5 2.5 1.12 2.5 2.5zm9.96 0c0 1.38-1.1 2.5-2.5 2.5-1.37 0-2.5-1.12-2.5-2.5s1.13-2.5 2.5-2.5c1.4 0 2.5 1.12 2.5 2.5zm9.98 0c0 1.38-1.12 2.5-2.5 2.5s-2.5-1.12-2.5-2.5 1.12-2.5 2.5-2.5 2.5 1.12 2.5 2.5zm9.96 0c0 1.38-1.12 2.5-2.5 2.5s-2.5-1.12-2.5-2.5 1.12-2.5 2.5-2.5 2.5 1.12 2.5 2.5zm9.97 0c0 1.38-1.1 2.5-2.5 2.5-1.38 0-2.5-1.12-2.5-2.5s1.13-2.5 2.5-2.5c1.4 0 2.5 1.12 2.5 2.5zm9.97 0c0 1.38-1.12 2.5-2.5 2.5s-2.5-1.12-2.5-2.5 1.12-2.5 2.5-2.5 2.5 1.12 2.5 2.5zm9.97 0c0 1.38-1.12 2.5-2.5 2.5-1.4 0-2.5-1.12-2.5-2.5s1.1-2.5 2.5-2.5c1.38 0 2.5 1.12 2.5 2.5zm9.96 0c0 1.38-1.12 2.5-2.5 2.5s-2.5-1.12-2.5-2.5 1.12-2.5 2.5-2.5 2.5 1.12 2.5 2.5z" fill="#979ea8"/><path d="M640 130v445.1a6 6 0 0 0 6 6h262.5" stroke="#9b5fe0" stroke-width="10" fill="none"/><path d="M644.98 130.13H635v-5.28l4.9.15h.87l4.18-.17z" stroke="#9b5fe0" stroke-width=".05" fill="#9b5fe0"/><path d="M919.62 581.75l-19.97-1.14m20.54-8.83l-20.55 8.84m19.4 11.14l-19.4-11.13" stroke="#9b5fe0" stroke-width="10" fill="none"/><path d="M360 130v922.38a6 6 0 0 0 6 6h1329.88" stroke="#16a4d8" stroke-width="10" fill="none"/><path d="M364.98 130.13h-9.96v-5.28l4.9.15h.87l4.18-.17z" stroke="#16a4d8" stroke-width=".05" fill="#16a4d8"/><path d="M1707.76 1058.38h-20m20-10l-20 10m20 10l-20-10" stroke="#16a4d8" stroke-width="10" fill="none"/><path d="M1632.14 1302.82a4.13 4.13 0 0 0 3.86 5.6h148a4.13 4.13 0 0 0 3.86-5.6l-75.72-198.46a2.3 2.3 0 0 0-4.28 0z" stroke="#d64e12" stroke-width="10" fill="#d64e12"/><use xlink:href="#a" transform="matrix(1,0,0,1,1635.0000174179472,1103.7570040643175) translate(75.005 84.45000000000002)"/><use xlink:href="#b" transform="matrix(1,0,0,1,1635.0000174179472,1103.7570040643175) translate(49.705 151.1166666666667)"/><path d="M440 40c0 44.18-35.82 80-80 80s-80-35.82-80-80 35.82-80 80-80 80 35.82 80 80z" stroke="#16a4d8" stroke-width="10" fill="#16a4d8"/><use xlink:href="#c" transform="matrix(1,0,0,1,285,-35) translate(8.971666666666673 95.38750000000002)"/><path d="M720 40c0 44.18-35.82 80-80 80s-80-35.82-80-80 35.82-80 80-80 80 35.82 80 80z" stroke="#9b5fe0" stroke-width="10" fill="#9b5fe0"/><use xlink:href="#d" transform="matrix(1,0,0,1,565,-35) translate(-10.799999999999997 94.86666666666667)"/><path d="M640 130v847.38a6 6 0 0 0 6 6h1049.88" stroke="#9b5fe0" stroke-width="10" fill="none"/><path d="M644.98 130.13H635v-5.28l4.9.15h.87l4.18-.17z" stroke="#9b5fe0" stroke-width=".05" fill="#9b5fe0"/><path d="M1707.76 983.38h-20m20-10l-20 10m20 10l-20-10" stroke="#9b5fe0" stroke-width="10" fill="none"/><path d="M1471-280a6 6 0 0 1-6-6v-228a6 6 0 0 1 6-6h148a6 6 0 0 1 6 6v228a6 6 0 0 1-6 6z" stroke="#000" stroke-opacity="0" stroke-width="10" fill="#fff" fill-opacity="0"/><use xlink:href="#e" transform="matrix(6.123233995736766e-17,-1,1,6.123233995736766e-17,1470.0000174179477,-285) translate(-39.30000000000001 61.533333333333324)"/><use xlink:href="#f" transform="matrix(6.123233995736766e-17,-1,1,6.123233995736766e-17,1470.0000174179477,-285) translate(27.03333333333333 128.20000000000002)"/><path d="M1471 172.5a6 6 0 0 1-6-6v-228a6 6 0 0 1 6-6h148a6 6 0 0 1 6 6v228a6 6 0 0 1-6 6z" stroke="#000" stroke-opacity="0" stroke-width="10" fill="#fff" fill-opacity="0"/><use xlink:href="#g" transform="matrix(6.123233995736766e-17,-1,1,6.123233995736766e-17,1470.0000174179472,167.5) translate(-28.666666666666686 61.533333333333324)"/><use xlink:href="#f" transform="matrix(6.123233995736766e-17,-1,1,6.123233995736766e-17,1470.0000174179472,167.5) translate(27.03333333333333 128.20000000000002)"/><path d="M1526 660.03a6 6 0 0 1-6-6v-228a6 6 0 0 1 6-6h78a6 6 0 0 1 6 6v228a6 6 0 0 1-6 6z" stroke="#000" stroke-opacity="0" stroke-width="10" fill="#fff" fill-opacity="0"/><use xlink:href="#h" transform="matrix(6.123233995736766e-17,-1,1,6.123233995736766e-17,1525,655.0280915311077) translate(30.433333333333337 60.79375000000001)"/><path d="M817.14 253.33a4.13 4.13 0 0 0 3.86 5.6h148a4.13 4.13 0 0 0 3.86-5.6l-75.72-198.8a2.3 2.3 0 0 0-4.28 0z" stroke="#000" stroke-opacity="0" stroke-width="10" fill="#8bd346"/><use xlink:href="#a" transform="matrix(1,0,0,1,820.0000099082995,53.936318664879266) translate(75.005 53.20000000000001)"/><use xlink:href="#i" transform="matrix(1,0,0,1,820.0000099082995,53.936318664879266) translate(75.005 119.8666666666667)"/><use xlink:href="#j" transform="matrix(1,0,0,1,820.0000099082995,53.936318664879266) translate(23.138333333333332 186.5333333333334)"/><path d="M1039.47 532.36a14.25 14.25 0 0 1 11.06 0l178.94 75.34a2.53 2.53 0 0 1 0 4.66l-178.94 75.34a14.25 14.25 0 0 1-11.06 0l-178.94-75.34a2.53 2.53 0 0 1 0-4.66z" stroke="#000" stroke-opacity="0" stroke-width="10" fill="#efdf48"/><use xlink:href="#k" transform="matrix(1,0,0,1,860.0000099082995,535.0280915311077) translate(126.37166666666666 95.38750000000002)"/><path d="M895 253.94V-285.5" stroke="#8bd346" stroke-width="10" fill="none"/><path d="M899.98 258.94H890v-5.13H900z" stroke="#8bd346" stroke-width=".05" fill="#8bd346"/><path d="M895-285.37v-5.13" stroke="#8bd346" stroke-width="10" fill="none"/><path d="M360-50v-525" stroke="#16a4d8" stroke-width="10" fill="none"/><path d="M364.98-44.85l-4.9-.15h-.87l-4.18.17v-5.3h9.96z" stroke="#16a4d8" stroke-width=".05" fill="#16a4d8"/><path d="M360-574.87V-580" stroke="#16a4d8" stroke-width="10" fill="none"/><path d="M110-527h235.88" stroke="#333b41" stroke-width="10" fill="none"/><path d="M110.13-522.02H105V-532h5.13z" stroke="#333b41" stroke-width=".05" fill="#333b41"/><path d="M357.76-527h-20m20-10l-20 10m20 10l-20-10" stroke="#333b41" stroke-width="10" fill="none"/><path d="M-60-614a6 6 0 0 1 6-6H94a6 6 0 0 1 6 6v368a6 6 0 0 1-6 6H-54a6 6 0 0 1-6-6z" stroke="#333b41" stroke-width="10" fill="#4a555e"/><use xlink:href="#l" transform="matrix(1,0,0,1,-55,-615) translate(23.766666666666666 203.51250000000002)"/><path d="M110-489.28h238c0-6.63 5.37-12 12-12s12 5.37 12 12h157.82" stroke="#333b41" stroke-width="10" fill="none"/><path d="M110.13-484.3H105v-9.96h5.13z" stroke="#333b41" stroke-width=".05" fill="#333b41"/><path d="M541.7-489.28h-20m20-10l-20 10m20 10l-20-10" stroke="#333b41" stroke-width="10" fill="none"/><path d="M1325.33 395.73v-807.67a6 6 0 0 0-6-6H753.97" stroke="#f9a52c" stroke-width="10" fill="none"/><path d="M1330.3 400.52l-8.27.35-1.68.14v-5.4h9.95z" stroke="#f9a52c" stroke-width=".05" fill="#f9a52c"/><path d="M755.64-417.94c0 8.28-6.72 15-15 15-8.3 0-15-6.72-15-15 0-8.3 6.7-15 15-15 8.28 0 15 6.7 15 15z" stroke="#f9a52c" stroke-width="10" fill="#f9a52c"/><path d="M641.06-49.9l117.88-545.2" stroke="#9b5fe0" stroke-width="10" fill="none"/><path d="M645.95-48.96l-.9 4.12-4.98-.16h-.86l-4.33.17 1.35-6.23z" stroke="#9b5fe0" stroke-width=".05" fill="#9b5fe0"/><path d="M758.92-595l1.08-5M638.94-49.9L521.06-595.1" stroke="#9b5fe0" stroke-width="10" fill="none"/><path d="M645.12-44.84l-5.05-.16h-.86l-4.25.17-.9-4.13 9.73-2.1z" stroke="#9b5fe0" stroke-width=".05" fill="#9b5fe0"/><path d="M521.08-595l-1.08-5" stroke="#9b5fe0" stroke-width="10" fill="none"/><path d="M1045 526.24V-234a6 6 0 0 0-6-6H907.12" stroke="#efdf48" stroke-width="10" fill="none"/><path d="M1049.97 532.15l-.5-.2-1.1-.3-1.1-.23-1.13-.13-1.14-.06-1.13.04-1.13.14-1.12.23-1.1.3-.5.2v-6.04h9.95z" stroke="#efdf48" stroke-width=".05" fill="#efdf48"/><path d="M897.2-241.64l19.74 3.26m-21.36 6.6l21.36-6.6m-18.1-13.12l18.1 13.12M1045 526.24v-849.2a6 6 0 0 0-6-6H715.52" stroke="#efdf48" stroke-width="10" fill="none"/><path d="M1049.97 532.15l-.5-.2-1.1-.3-1.1-.23-1.13-.13-1.14-.06-1.13.04-1.13.14-1.12.23-1.1.3-.5.2v-6.04h9.95z" stroke="#efdf48" stroke-width=".05" fill="#efdf48"/><path d="M703.63-328.97h20m-20 10l20-10m-20-10l20 10M1045 526.24V-358a6 6 0 0 0-6-6H720.97c0-6.63-5.37-12-12-12-6.62 0-12 5.37-12 12H583.03c0-6.63-5.38-12-12-12-6.63 0-12 5.37-12 12h-184.9" stroke="#efdf48" stroke-width="10" fill="none"/><path d="M1049.97 532.15l-.5-.2-1.1-.3-1.1-.23-1.13-.13-1.14-.06-1.13.04-1.13.14-1.12.23-1.1.3-.5.2v-6.04h9.95z" stroke="#efdf48" stroke-width=".05" fill="#efdf48"/><path d="M362.24-364h20m-20 10l20-10m-20-10l20 10" stroke="#efdf48" stroke-width="10" fill="none"/><path d="M110-415h14a6 6 0 0 1 6 6V824.38a6 6 0 0 0 6 6h212c0-6.63 5.37-12 12-12s12 5.37 12 12h256c0-6.63 5.37-12 12-12s12 5.37 12 12h1043.88" stroke="#333b41" stroke-width="10" fill="none"/><path d="M110.13-410.02H105v-9.96h5.13z" stroke="#333b41" stroke-width=".05" fill="#333b41"/><path d="M1707.76 830.38h-20m20-10l-20 10m20 10l-20-10" stroke="#333b41" stroke-width="10" fill="none"/><path d="M1500 450c0 27.6-67.16 50-150 50s-150-22.4-150-50 67.16-50 150-50 150 22.4 150 50z" stroke="#000" stroke-opacity="0" stroke-width="10" fill="#f9a52c"/><use xlink:href="#m" transform="matrix(1,0,0,1,1205,405) translate(50.60500000000001 68.01250000000002)"/><path d="M1460 1203.6c0 49.7-31.34 90-70 90s-70-40.3-70-90 31.34-90 70-90 70 40.3 70 90z" stroke="#000" stroke-opacity="0" stroke-width="10" fill="#60dbe8"/><use xlink:href="#n" transform="matrix(1,0,0,1,1325.0000174179477,1118.591932836253) translate(50.2 106.32500000000002)"/><path d="M1465 1203.6h166.32" stroke="#60dbe8" stroke-width="10" fill="none"/><path d="M1465.13 1208.57h-5.27l.14-4.98v-1.8l-.15-3.18h5.28z" stroke="#60dbe8" stroke-width=".05" fill="#60dbe8"/><path d="M1659.65 1203.6c0 8.28-6.72 15-15 15-8.3 0-15-6.72-15-15 0-8.3 6.7-15 15-15 8.28 0 15 6.7 15 15z" stroke="#60dbe8" stroke-width="10" fill="#60dbe8"/><path d="M1710 1318.43v29a6 6 0 0 0 6 6h268a6 6 0 0 0 6-6V746a6 6 0 0 0-6-6h-933a6 6 0 0 1-6-6v-31.07" stroke="#d64e12" stroke-width="10" fill="none"/><path d="M1714.97 1313.43v5.13h-9.94v-5.13z" stroke="#d64e12" stroke-width=".05" fill="#d64e12"/><path d="M1045 691.05v20m-10-20l10 20m10-20l-10 20M1710 1318.43v29a6 6 0 0 0 6 6h148a6 6 0 0 0 6-6V908.38a6 6 0 0 0-6-6h-139.88" stroke="#d64e12" stroke-width="10" fill="none"/><path d="M1714.97 1313.43v5.13h-9.94v-5.13z" stroke="#d64e12" stroke-width=".05" fill="#d64e12"/><path d="M1712.24 902.38h20m-20 10l20-10m-20-10l20 10M1710 1318.43v65.47a.3.3 0 0 1-.3.3.3.3 0 0 0-.33.33V1427" stroke="#d64e12" stroke-width="10" fill="none"/><path d="M1714.97 1313.43v5.13h-9.94v-5.13z" stroke="#d64e12" stroke-width=".05" fill="#d64e12"/><path d="M1709.38 1445l-7.5-13h15z" stroke="#d64e12" stroke-width="10" fill="#d64e12"/><path d="M1710 1318.43v29a6 6 0 0 1-6 6h-308a6 6 0 0 1-6-6v-39.72" stroke="#d64e12" stroke-width="10" fill="none"/><path d="M1714.97 1313.43v5.13h-9.94v-5.13z" stroke="#d64e12" stroke-width=".05" fill="#d64e12"/><path d="M1390 1295.83v20m-10-20l10 20m10-20l-10 20M1710 1092.85V800.8" stroke="#d64e12" stroke-width="10" fill="none"/><path d="M1714.97 1099.83l-.12-.14-1.45-1-1.65-.63-1.75-.22-1.75.22-1.65.62-1.45 1-.13.13v-7.1h9.95z" stroke="#d64e12" stroke-width=".05" fill="#d64e12"/><path d="M1710 800.9v-5.1" stroke="#d64e12" stroke-width="10" fill="none"/><path d="M1149.75 1063.38v169.2a6 6 0 0 0 6 6h155.66M1149.75 1063.5v-5.12M1323.3 1238.58h-20m20-10l-20 10m20 10l-20-10" stroke="#16a4d8" stroke-width="10" fill="none"/><path d="M1214.62 988.38v58c-6.62 0-12 5.37-12 12s5.38 12 12 12v115.6a6 6 0 0 0 6 6h85.87M1214.62 988.5v-5.12M1318.37 1191.97h-20m20-10l-20 10m20 10l-20-10" stroke="#9b5fe0" stroke-width="10" fill="none"/><path d="M1520 1466a6 6 0 0 1 6-6h366.75a6 6 0 0 1 6 6v148a6 6 0 0 1-6 6H1526a6 6 0 0 1-6-6z" stroke="#000" stroke-width="10" fill="#fff"/><use xlink:href="#o" transform="matrix(1,0,0,1,1525,1465) translate(114.96666666666667 95.38750000000002)"/><path d="M640 130v95.86a6 6 0 0 0 6 6h165.2" stroke="#9b5fe0" stroke-width="10" fill="none"/><path d="M644.98 130.13H635v-5.28l4.9.15h.87l4.18-.17z" stroke="#9b5fe0" stroke-width=".05" fill="#9b5fe0"/><path d="M823.08 231.86h-20m20-10l-20 10m20 10l-20-10" stroke="#9b5fe0" stroke-width="10" fill="none"/><path d="M110-455h238c0-6.63 5.37-12 12-12s12 5.37 12 12h167.35c0-6.63 5.37-12 12-12s12 5.37 12 12h153.3c0-6.63 5.37-12 12-12 5.4 0 9.95 3.4 11.5 8.57h619.73" stroke="#333b41" stroke-width="10" fill="none"/><path d="M110.13-450.02H105v-9.96h5.13z" stroke="#333b41" stroke-width=".05" fill="#333b41"/><path d="M1371.76-458.43h-20m20-10l-20 10m20 10l-20-10" stroke="#333b41" stroke-width="10" fill="none"/><path d="M365 191.74h263c0-6.63 5.37-12 12-12s12 5.37 12 12h174.48M365.13 191.74H360M838.36 191.74h-20m20-10l-20 10m20 10l-20-10" stroke="#16a4d8" stroke-width="10" fill="none"/><path d="M1020 1314.43a6 6 0 0 1 6-6h268a6 6 0 0 1 6 6V1416a6 6 0 0 1-6 6h-268a6 6 0 0 1-6-6z" stroke="#000" stroke-opacity="0" stroke-width="3" fill="#fff" fill-opacity="0"/><use xlink:href="#p" transform="matrix(1,0,0,1,1025,1313.4268616081883) translate(42.28888888888896 77.43333333333328)"/><path d="M855 148.94V46a6 6 0 0 0-6-6h-90.67" stroke="#8bd346" stroke-width="10" fill="none"/><path d="M853.86 156.94h-3.84v-8.13h6.93z" stroke="#8bd346" stroke-width=".05" fill="#8bd346"/><path d="M760 40c0 8.28-6.72 15-15 15-8.28 0-15-6.72-15-15 0-8.28 6.72-15 15-15 8.28 0 15 6.72 15 15z" stroke="#8bd346" stroke-width="10" fill="#8bd346"/><path d="M160 654.43a6 6 0 0 1 6-6h178a6 6 0 0 1 6 6V756a6 6 0 0 1-6 6H166a6 6 0 0 1-6-6z" stroke="#000" stroke-opacity="0" stroke-width="3" fill="#fff" fill-opacity="0"/><use xlink:href="#q" transform="matrix(1,0,0,1,165,653.4268616081883) translate(16.45555555555562 77.43333333333328)"/><path d="M961.85 211.28H1033c0-6.63 5.37-12 12-12s12 5.37 12 12h42.58a6 6 0 0 1 6 6V522.2" stroke="#8bd346" stroke-width="10" fill="none"/><path d="M961.97 216.26h-3.23l-3.8-9.95h7.03z" stroke="#8bd346" stroke-width=".05" fill="#8bd346"/><path d="M1120.58 535.53c0 8.3-6.72 15-15 15-8.3 0-15-6.7-15-15 0-8.28 6.7-15 15-15 8.28 0 15 6.72 15 15z" stroke="#8bd346" stroke-width="10" fill="#8bd346"/><path d="M360 130v501.45a6 6 0 0 0 6 6h262c0-6.62 5.37-12 12-12s12 5.38 12 12h254.02" stroke="#16a4d8" stroke-width="10" fill="none"/><path d="M364.98 130.13h-9.96v-5.28l4.9.15h.87l4.18-.17z" stroke="#16a4d8" stroke-width=".05" fill="#16a4d8"/><path d="M917.9 637.45h-20m20-10l-20 10m20 10l-20-10" stroke="#16a4d8" stroke-width="10" fill="none"/><path d="M1373.96 395.7V-65.6a.02.02 0 0 1 .02-.02.02.02 0 0 0 .02-.03V-527" stroke="#f9a52c" stroke-width="10" fill="none"/><path d="M1378.93 401.02l-9.95-.62v-4.82h9.95z" stroke="#f9a52c" stroke-width=".05" fill="#f9a52c"/><path d="M1374-526.87V-532" stroke="#f9a52c" stroke-width="10" fill="none"/><defs><path d="M735-521c0 140-106 211-315 211H308v166c0 64 0 67 7 76 2 13 60 15 105 14V0H24v-54c46 1 93-2 97-14 7-9 7-12 7-76v-433c0-64 0-67-7-76-4-12-50-15-97-14v-55h397c212 0 314 62 314 201zm-193-1c0-115-61-145-179-145-45 0-55 11-55 60v242h58c129 0 176-42 176-157" id="r"/><use transform="matrix(0.06666666666666667,0,0,0.06666666666666667,0,0)" xlink:href="#r" id="b"/><path d="M341 0H28v-51c61 1 78-1 78-47v-223c2-97-8-94-78-94v-51l235-7v376c-9 45 19 47 78 46V0zm-86-630c0 40-32 71-71 71-38 0-70-32-70-71 0-38 32-70 71-70 38 0 70 32 70 70" id="s"/><path d="M239-356c0 163 29 319 177 319 89 0 148-61 148-169 0-82-17-76-102-76v-54h355v54c-57 1-73 4-82 14-7 8-7 13-7 76V14h-53l-49-98c-56 65-132 99-238 99C181 15 39-134 39-350c0-293 317-488 577-333l59-50h44l9 287h-53c-33-152-120-239-238-239-158 0-198 156-198 329" id="t"/><path d="M406 15C191 15 40-144 40-352c0-224 158-385 378-385 71 0 117 13 183 53l54-49h43l10 286-53 6c-45-167-118-244-229-244-123 0-187 108-187 315 0 220 64 323 200 323 115 0 195-79 222-218l62 15C685-71 583 15 406 15" id="u"/><g id="c"><use transform="matrix(0.06666666666666667,0,0,0.06666666666666667,0,0)" xlink:href="#s"/><use transform="matrix(0.06666666666666667,0,0,0.06666666666666667,24.666666666666668,0)" xlink:href="#t"/><use transform="matrix(0.06666666666666667,0,0,0.06666666666666667,80.2,0)" xlink:href="#u"/></g><path d="M942 0H648v-51c51-1 58-7 58-46v-209c0-62-17-89-55-89-56 0-91 46-91 117v181c0 39 7 45 58 46V0H346v-51c50-1 57-7 57-47v-204c0-66-16-93-55-93-55 0-91 46-91 117v181c0 39 7 45 58 46V0H20v-51c62 1 80 0 80-47v-223c3-98-9-94-80-94v-51l228-7v79c40-63 93-94 160-94s120 34 141 90c47-64 93-90 157-90 89 0 157 63 157 145v246c-7 44 17 47 79 46V0" id="v"/><g id="d"><use transform="matrix(0.06666666666666667,0,0,0.06666666666666667,0,0)" xlink:href="#v"/><use transform="matrix(0.06666666666666667,0,0,0.06666666666666667,64.2,0)" xlink:href="#t"/><use transform="matrix(0.06666666666666667,0,0,0.06666666666666667,119.73333333333333,0)" xlink:href="#u"/></g><path fill="#282c33" d="M913 0H585v-47h18c81 0 90-4 90-47v-564L470 0h-40L192-658v442c0 136 20 165 115 169V0H22v-47c96-4 116-33 116-169v-412c0-42-9-47-90-47H29v-47h258l192 533 183-533h251v47h-18c-81 0-90 5-90 47v534c-9 49 32 47 108 47V0" id="w"/><path fill="#282c33" d="M466-233c0 138-96 248-216 248S34-95 34-232c0-140 96-249 218-249 118 0 214 111 214 248zm-105 0c0-132-39-205-109-205-75 0-113 70-113 206 0 132 39 204 111 204s111-72 111-205" id="x"/><path fill="#282c33" d="M287 0H28v-36h17c64 0 65-7 65-47v-550c10-66-41-47-91-50v-43l185-11v654c-9 46 21 48 83 47V0" id="y"/><path fill="#282c33" d="M465-127C424-32 356 15 261 15 126 15 35-80 35-220c0-150 96-261 224-261 123 0 206 106 206 256H141c0 126 56 186 139 186 67 0 109-30 150-107zM358-305c0-80-40-133-101-133s-115 63-115 170h175c32 0 41-8 41-37" id="z"/><path fill="#282c33" d="M292-350c-5-19 17-38 26-58 0-16-26-30-56-30-74 0-123 81-123 202 0 117 50 190 130 190 52 0 86-29 118-101l39 15C383-26 332 15 243 15 119 15 34-83 34-225c0-149 93-256 223-256 89 0 156 52 156 119 0 40-26 68-61 68s-60-23-60-56" id="A"/><path fill="#282c33" d="M281-46c93 0 131-81 131-193v-123c10-66-44-46-94-50v-43l188-11v350c-5 76 23 74 88 73V0L412 7v-83c-44 64-90 91-156 91-95 0-154-45-154-161v-216c8-61-33-49-81-50v-43l175-11v305c0 55 2 65 15 84 13 20 39 31 70 31" id="B"/><path fill="#282c33" d="M543-51c0 29-47 58-92 58-47 0-72-20-88-71-43 51-105 79-174 79-88 0-145-46-145-117 0-98 81-147 314-187 9-101-26-149-108-149-48 0-89 18-89 39 0 5 22 36 22 54 0 30-23 51-54 51-35 0-58-24-58-62 0-72 83-125 195-125 115 0 186 31 186 159v201c0 50 10 69 38 69 8 0 53-26 53 1zM224-38c77 0 145-51 134-162v-46c-173 29-213 59-213 130 0 45 34 78 79 78" id="C"/><path fill="#282c33" d="M337-433C224-411 192-230 198-83c-8 46 32 48 94 47V0H25v-36c63 1 80-1 80-47v-279c9-62-35-48-84-50v-43l177-11v124c32-88 87-139 150-139 53 0 87 32 87 80 0 41-25 68-61 68-52 0-74-67-37-100" id="D"/><g id="e"><use transform="matrix(0.06666666666666667,0,0,0.06666666666666667,0,0)" xlink:href="#w"/><use transform="matrix(0.06666666666666667,0,0,0.06666666666666667,62.93333333333333,0)" xlink:href="#x"/><use transform="matrix(0.06666666666666667,0,0,0.06666666666666667,96.26666666666667,0)" xlink:href="#y"/><use transform="matrix(0.06666666666666667,0,0,0.06666666666666667,117.26666666666667,0)" xlink:href="#z"/><use transform="matrix(0.06666666666666667,0,0,0.06666666666666667,150.6,0)" xlink:href="#A"/><use transform="matrix(0.06666666666666667,0,0,0.06666666666666667,180.2,0)" xlink:href="#B"/><use transform="matrix(0.06666666666666667,0,0,0.06666666666666667,220.93333333333334,0)" xlink:href="#y"/><use transform="matrix(0.06666666666666667,0,0,0.06666666666666667,241.93333333333334,0)" xlink:href="#C"/><use transform="matrix(0.06666666666666667,0,0,0.06666666666666667,279,0)" xlink:href="#D"/></g><path fill="#282c33" d="M646-274L625 0H35v-47h18c81 0 90-5 90-47v-534c9-48-32-47-108-47v-47h328v47h-18c-81 0-90 5-90 47v533c-8 57 58 47 114 48 167 0 210-72 233-227h44" id="E"/><path fill="#282c33" d="M531-430c-52-2-61 15-90 81-59 135-140 379-209 475-39 55-85 80-138 80-52 0-91-33-91-77 0-36 25-62 60-62 46 0 61 43 44 80 0 6 7 10 16 10 37 8 103-95 132-164L92-376c-21-45-35-56-79-54v-36h238v36c-46-3-80 3-61 46l110 257 91-226c24-49 7-84-60-77v-36h200v36" id="F"/><g id="f"><use transform="matrix(0.06666666666666667,0,0,0.06666666666666667,0,0)" xlink:href="#E"/><use transform="matrix(0.06666666666666667,0,0,0.06666666666666667,44.46666666666667,0)" xlink:href="#C"/><use transform="matrix(0.06666666666666667,0,0,0.06666666666666667,78.86666666666667,0)" xlink:href="#F"/><use transform="matrix(0.06666666666666667,0,0,0.06666666666666667,113,0)" xlink:href="#z"/><use transform="matrix(0.06666666666666667,0,0,0.06666666666666667,146.33333333333334,0)" xlink:href="#D"/></g><path fill="#282c33" d="M772-282c-48-1-96 2-99 14-6 7-6 8-6 62V14h-42l-37-90c-65 65-124 91-208 91C191 15 42-133 42-348c0-200 140-389 349-389 73 0 117 17 182 69l39-61h52v281h-43c-41-160-120-242-234-242-139 0-213 119-213 342 0 207 76 316 216 316 110 0 174-68 174-190 0-63-28-60-110-60v-47h318v47" id="G"/><path fill="#282c33" d="M358-481c104 0 156 66 156 201v197c-7 45 16 48 79 47V0H340v-36c63 1 80-1 80-47v-202c3-86-25-135-93-135-83 0-127 79-127 193v144c-7 45 17 48 80 47V0H27v-36c62 1 79-1 79-47v-279c8-60-31-49-79-50v-43l173-11v81c44-66 94-96 158-96" id="H"/><g id="g"><use transform="matrix(0.06666666666666667,0,0,0.06666666666666667,0,0)" xlink:href="#G"/><use transform="matrix(0.06666666666666667,0,0,0.06666666666666667,51.86666666666667,0)" xlink:href="#D"/><use transform="matrix(0.06666666666666667,0,0,0.06666666666666667,81.13333333333333,0)" xlink:href="#C"/><use transform="matrix(0.06666666666666667,0,0,0.06666666666666667,118.19999999999999,0)" xlink:href="#H"/><use transform="matrix(0.06666666666666667,0,0,0.06666666666666667,158.93333333333334,0)" xlink:href="#B"/><use transform="matrix(0.06666666666666667,0,0,0.06666666666666667,199.66666666666669,0)" xlink:href="#y"/><use transform="matrix(0.06666666666666667,0,0,0.06666666666666667,220.66666666666669,0)" xlink:href="#C"/><use transform="matrix(0.06666666666666667,0,0,0.06666666666666667,257.73333333333335,0)" xlink:href="#D"/></g><path fill="#282c33" d="M804 0H476v-47h18c81 0 90-5 90-47v-253H249v253c0 42 9 47 90 47h19V0H29v-47h18c81 0 90-5 90-47v-534c9-48-32-47-108-47v-47h329v47h-19c-81 0-90 5-90 47v227h335v-227c8-46-27-47-104-47v-47h324v47h-18c-81 0-90 5-90 47v534c-9 48 32 47 108 47V0" id="I"/><path fill="#282c33" d="M289 0H30v-36c63 1 82-2 82-47v-279c10-65-44-47-94-50v-43l188-11v383c-6 44 19 48 83 47V0zm-80-610c0 28-23 50-51 50-26 0-49-23-49-50s23-50 50-50 50 23 50 50" id="J"/><path fill="#282c33" d="M355-309c-23-77-66-123-146-128-86-7-126 86-58 122 7 11 89 25 123 33 61 14 81 21 105 42 28 23 42 57 42 101 0 93-65 154-163 154-50 0-96-16-137-49L86 7H51v-189h40C115-82 175-28 259-28c59 0 100-33 100-80 0-40-28-60-107-79-107-25-194-34-194-149 0-87 58-145 146-145 50 0 86 12 122 40l29-36h35v168h-35" id="K"/><g id="h"><use transform="matrix(0.06666666666666667,0,0,0.06666666666666667,0,0)" xlink:href="#I"/><use transform="matrix(0.06666666666666667,0,0,0.06666666666666667,55.53333333333333,0)" xlink:href="#J"/><use transform="matrix(0.06666666666666667,0,0,0.06666666666666667,76.53333333333333,0)" xlink:href="#y"/><use transform="matrix(0.06666666666666667,0,0,0.06666666666666667,97.53333333333333,0)" xlink:href="#B"/><use transform="matrix(0.06666666666666667,0,0,0.06666666666666667,138.26666666666665,0)" xlink:href="#K"/></g><path d="M736-189c0 67-42 131-106 159C579-7 525 0 422 0H17v-54c47 1 93-2 97-15 7-8 7-12 7-75v-434c0-64 0-67-7-76-4-12-50-15-97-14v-54h386c119 0 166 9 221 40 49 28 79 80 79 137 0 91-62 143-197 165 149 20 230 89 230 191zM522-541c1-93-60-127-165-127-32 0-56 4-56 58v212h49c129 0 172-56 172-143zm23 341c0-93-44-143-175-143h-69v225c-9 75 29 64 91 64 103 0 153-54 153-146" id="L"/><g id="j"><use transform="matrix(0.06666666666666667,0,0,0.06666666666666667,0,0)" xlink:href="#L"/><use transform="matrix(0.06666666666666667,0,0,0.06666666666666667,51.86666666666667,0)" xlink:href="#u"/></g><path d="M965 0H583v-54c49 1 89-3 94-15 7-8 7-12 7-75v-499L463 0h-52L184-633v416c0 89 5 114 26 136 16 17 44 26 84 27V0H9v-54c39-1 66-10 82-27 21-22 26-48 26-136v-361c0-63 0-67-7-75-5-12-45-16-94-15v-54h322l155 430 146-430h326v54c-49-1-89 3-94 15-7 8-7 13-7 75v434c0 62 0 67 7 75 5 12 45 16 94 15V0" id="M"/><g id="k"><use transform="matrix(0.06666666666666667,0,0,0.06666666666666667,0,0)" xlink:href="#M"/><use transform="matrix(0.06666666666666667,0,0,0.06666666666666667,65.4,0)" xlink:href="#u"/></g><path fill="#f2f3f5" d="M414-668c-82 0-114-5-114 86v181c94 10 136-35 155-142h54v339h-54c-19-107-62-152-155-142v222c0 33 3 44 16 56 4 16 63 14 104 14 121 0 192-65 234-215h53L695 0H16v-54c47 1 93-2 97-15 7-8 7-12 7-75v-434c0-63 0-67-7-75-4-13-50-16-97-15v-54h671l6 260h-52c-33-121-84-206-227-206" id="N"/><path fill="#f2f3f5" d="M406 15C191 15 40-144 40-352c0-224 158-385 378-385 71 0 117 13 183 53l54-49h43l10 286-53 6c-45-167-118-244-229-244-123 0-187 108-187 315 0 220 64 323 200 323 115 0 195-79 222-218l62 15C685-71 583 15 406 15" id="O"/><g id="l"><use transform="matrix(0.06666666666666667,0,0,0.06666666666666667,0,0)" xlink:href="#N"/><use transform="matrix(0.06666666666666667,0,0,0.06666666666666667,50.6,0)" xlink:href="#O"/></g><path d="M850 0H461v-54c47 1 93-2 97-15 7-8 7-12 7-75v-195H304v195c0 64 0 67 7 75 4 13 51 16 98 15V0H20v-54c47 1 93-2 97-15 7-8 7-12 7-75v-433c0-64 0-68-7-76-4-13-50-16-97-15v-54h389v54c-47-1-94 2-98 15-7 8-7 12-7 76v178h261v-178c0-63 0-68-7-76-4-13-50-16-97-15v-54h389v54c-47-1-94 2-98 15-7 8-7 12-7 76v433c0 64 0 67 7 75 4 13 51 16 98 15V0" id="P"/><path d="M417 0H28v-54c47 1 93-2 97-15 7-8 7-12 7-75v-434c0-63 0-67-7-75-4-13-50-16-97-15v-54h389v54c-47-1-94 2-98 15-7 8-7 11-7 75v434c0 64 0 67 7 75 4 13 51 16 98 15V0" id="Q"/><g id="m"><use transform="matrix(0.06666666666666667,0,0,0.06666666666666667,0,0)" xlink:href="#P"/><use transform="matrix(0.06666666666666667,0,0,0.06666666666666667,58,0)" xlink:href="#Q"/><use transform="matrix(0.06666666666666667,0,0,0.06666666666666667,87.6,0)" xlink:href="#r"/><use transform="matrix(0.06666666666666667,0,0,0.06666666666666667,138.2,0)" xlink:href="#r"/></g><use transform="matrix(0.06666666666666667,0,0,0.06666666666666667,0,0)" xlink:href="#Q" id="n"/><path fill="#4c535d" d="M406 15C191 15 40-144 40-352c0-224 158-385 378-385 71 0 117 13 183 53l54-49h43l10 286-53 6c-45-167-118-244-229-244-123 0-187 108-187 315 0 220 64 323 200 323 115 0 195-79 222-218l62 15C685-71 583 15 406 15" id="R"/><path fill="#4c535d" d="M778 0H427v-54c37-3 81-1 75-25-11-44-35-96-50-139H203c-38 71-65 166 68 164V0H-18v-54c59-6 96-45 142-153l227-530h76l257 620c21 51 37 61 94 63V0zM427-285l-97-239-101 239h198" id="S"/><path fill="#4c535d" d="M491 0H92v-54c43 1 114 0 115-15 7-8 7-13 7-75v-355c0-82 0-84-89-84H83v-56c118-2 191-22 253-69h35v564c0 63 0 67 7 75 1 15 71 16 113 15V0" id="T"/><g id="o"><use transform="matrix(0.06666666666666667,0,0,0.06666666666666667,0,0)" xlink:href="#R"/><use transform="matrix(0.06666666666666667,0,0,0.06666666666666667,50.2,0)" xlink:href="#S"/><use transform="matrix(0.06666666666666667,0,0,0.06666666666666667,100.80000000000001,0)" xlink:href="#T"/></g><path fill="#3a414a" d="M406 15C191 15 40-144 40-352c0-224 158-385 378-385 71 0 117 13 183 53l54-49h43l10 286-53 6c-45-167-118-244-229-244-123 0-187 108-187 315 0 220 64 323 200 323 115 0 195-79 222-218l62 15C685-71 583 15 406 15" id="U"/><path fill="#3a414a" d="M778 0H427v-54c37-3 81-1 75-25-11-44-35-96-50-139H203c-38 71-65 166 68 164V0H-18v-54c59-6 96-45 142-153l227-530h76l257 620c21 51 37 61 94 63V0zM427-285l-97-239-101 239h198" id="V"/><path fill="#3a414a" d="M530-193C530-55 418 14 266 14 122 14 24-55 24-156c0-56 37-95 90-95 50 0 87 36 87 83 0 28-7 41-37 70-33 33 27 60 76 60 74 0 116-58 116-158 0-94-31-142-93-142-5 0-26 6-66 6-21 0-36-16-36-38 2-54 69-22 112-22 47 0 77-54 77-140 0-78-37-124-100-124-42 0-94 24-69 50 28 28 40 48 40 75 0 47-33 79-81 79-52 0-91-39-91-91 0-94 98-165 227-165 142 0 236 71 236 177 0 87-57 137-161 163 122 16 179 70 179 175" id="W"/><g id="p"><use transform="matrix(0.08888888888888881,0,0,0.08888888888888881,0,0)" xlink:href="#U"/><use transform="matrix(0.08888888888888881,0,0,0.08888888888888881,66.93333333333328,0)" xlink:href="#V"/><use transform="matrix(0.08888888888888881,0,0,0.08888888888888881,134.3999999999999,0)" xlink:href="#W"/></g><path fill="#3a414a" d="M793-369C793-125 663 0 387 0H19v-54c47 1 93-2 97-15 7-8 7-12 7-75v-434c0-63 0-67-7-75-4-13-50-16-97-15v-54c202 9 519-26 631 54 91 66 143 165 143 299zm-199-2c0-210-69-297-231-297-48 0-60 12-60 60v489c-4 62 23 65 81 65 149 0 210-97 210-317" id="X"/><path fill="#3a414a" d="M239-356c0 163 29 319 177 319 89 0 148-61 148-169 0-82-17-76-102-76v-54h355v54c-57 1-73 4-82 14-7 8-7 13-7 76V14h-53l-49-98c-56 65-132 99-238 99C181 15 39-134 39-350c0-293 317-488 577-333l59-50h44l9 287h-53c-33-152-120-239-238-239-158 0-198 156-198 329" id="Y"/><g id="q"><use transform="matrix(0.08888888888888881,0,0,0.08888888888888881,0,0)" xlink:href="#X"/><use transform="matrix(0.08888888888888881,0,0,0.08888888888888881,74.04444444444438,0)" xlink:href="#Y"/></g></defs></g></svg>